<svg width="401" height="267" viewBox="0 0 401 267" fill="none" xmlns="http://www.w3.org/2000/svg">
<path d="M11.5128 21.2273C10.5848 21.2273 9.76799 20.9834 9.0625 20.4957C8.35701 20.0033 7.8054 19.331 7.40767 18.4787C7.01468 17.6264 6.81818 16.6605 6.81818 15.581C6.81818 14.5014 7.01705 13.5355 7.41477 12.6832C7.8125 11.831 8.36411 11.1586 9.0696 10.6662C9.77509 10.1738 10.5871 9.92756 11.5057 9.92756C12.197 9.92756 12.8267 10.0696 13.3949 10.3537C13.9678 10.6378 14.4413 11.0331 14.8153 11.5398C15.1941 12.0464 15.4356 12.6335 15.5398 13.3011H14.6591C14.517 12.5625 14.1619 11.9517 13.5938 11.4688C13.0303 10.9811 12.3366 10.7372 11.5128 10.7372C10.7741 10.7372 10.116 10.9455 9.53835 11.3622C8.9607 11.7741 8.50616 12.3447 8.17472 13.0739C7.84328 13.7983 7.67756 14.6293 7.67756 15.5668C7.67756 16.4901 7.83854 17.3187 8.16051 18.0526C8.48248 18.7817 8.93229 19.3594 9.50994 19.7855C10.0876 20.2116 10.7552 20.4247 11.5128 20.4247C12.0478 20.4247 12.5355 20.3182 12.9759 20.1051C13.4209 19.892 13.7926 19.589 14.0909 19.196C14.3892 18.803 14.5857 18.3438 14.6804 17.8182H15.5611C15.4569 18.4905 15.2202 19.0824 14.8509 19.5938C14.4815 20.1051 14.0104 20.5052 13.4375 20.794C12.8646 21.0829 12.223 21.2273 11.5128 21.2273ZM22.571 21.2273C21.6714 21.2273 20.8712 20.9858 20.1705 20.5028C19.4697 20.0152 18.9181 19.3452 18.5156 18.4929C18.1132 17.6406 17.9119 16.67 17.9119 15.581C17.9119 14.4872 18.1132 13.5166 18.5156 12.669C18.9181 11.8168 19.4697 11.1468 20.1705 10.6591C20.8712 10.1714 21.6714 9.92756 22.571 9.92756C23.4706 9.92756 24.2708 10.1714 24.9716 10.6591C25.6723 11.1468 26.224 11.8168 26.6264 12.669C27.0289 13.5213 27.2301 14.492 27.2301 15.581C27.2301 16.67 27.0289 17.6406 26.6264 18.4929C26.224 19.3452 25.6723 20.0152 24.9716 20.5028C24.2708 20.9858 23.4706 21.2273 22.571 21.2273ZM22.571 20.4247C23.3333 20.4247 23.9986 20.2093 24.5668 19.7784C25.1397 19.3475 25.5824 18.7652 25.8949 18.0312C26.2121 17.2973 26.3707 16.4806 26.3707 15.581C26.3707 14.6813 26.2121 13.867 25.8949 13.1378C25.5777 12.4039 25.1349 11.8215 24.5668 11.3906C23.9986 10.955 23.3333 10.7372 22.571 10.7372C21.8087 10.7372 21.1435 10.955 20.5753 11.3906C20.0071 11.8215 19.5644 12.4039 19.2472 13.1378C18.9299 13.867 18.7713 14.6813 18.7713 15.581C18.7713 16.4806 18.9276 17.2973 19.2401 18.0312C19.5573 18.7652 20 19.3475 20.5682 19.7784C21.1411 20.2093 21.8087 20.4247 22.571 20.4247ZM31.0813 13.9261V21H30.2148V10.0909H31.06V11.8168H31.1452C31.4009 11.2533 31.8105 10.8011 32.3739 10.4602C32.9374 10.1193 33.6074 9.94886 34.3839 9.94886C35.1178 9.94886 35.7617 10.1051 36.3157 10.4176C36.8744 10.7301 37.31 11.1752 37.6225 11.7528C37.9397 12.3258 38.0984 13.0099 38.0984 13.8054V21H37.2319V13.8409C37.2319 12.9129 36.9549 12.1671 36.4009 11.6037C35.8517 11.0355 35.1249 10.7514 34.2205 10.7514C33.6145 10.7514 33.0747 10.884 32.6012 11.1491C32.1277 11.4143 31.756 11.786 31.4862 12.2642C31.2163 12.7377 31.0813 13.2917 31.0813 13.9261ZM48.631 12.4418L47.8285 12.6548C47.7006 12.2571 47.5183 11.9138 47.2816 11.625C47.0449 11.3362 46.7466 11.1136 46.3867 10.9574C46.0316 10.7964 45.6055 10.7159 45.1083 10.7159C44.3081 10.7159 43.6523 10.9148 43.141 11.3125C42.6344 11.7102 42.381 12.2287 42.381 12.8679C42.381 13.3887 42.5539 13.8196 42.8995 14.1605C43.2451 14.4967 43.7731 14.7524 44.4833 14.9276L46.1594 15.3466C47.0212 15.5597 47.6699 15.9053 48.1055 16.3835C48.5411 16.857 48.7589 17.4465 48.7589 18.152C48.7589 18.7533 48.5955 19.286 48.2688 19.75C47.9421 20.214 47.4899 20.5762 46.9123 20.8366C46.3394 21.0971 45.6718 21.2273 44.9094 21.2273C43.8915 21.2273 43.0558 20.9905 42.4023 20.517C41.7489 20.0388 41.3299 19.3546 41.1452 18.4645L41.9762 18.2514C42.1325 18.9616 42.4568 19.5038 42.9492 19.8778C43.4464 20.2472 44.0974 20.4318 44.9023 20.4318C45.7925 20.4318 46.5098 20.2211 47.0543 19.7997C47.6036 19.3783 47.8782 18.8385 47.8782 18.1804C47.8782 17.6785 47.7172 17.2547 47.3952 16.9091C47.0733 16.5634 46.5856 16.3101 45.9322 16.1491L44.1921 15.723C43.302 15.5052 42.6344 15.1572 42.1893 14.679C41.7442 14.196 41.5217 13.6018 41.5217 12.8963C41.5217 12.3092 41.6755 11.7931 41.9833 11.348C42.2911 10.9029 42.7148 10.5549 43.2546 10.304C43.7944 10.053 44.4123 9.92756 45.1083 9.92756C46.0316 9.92756 46.7844 10.1454 47.3668 10.581C47.9492 11.0166 48.3706 11.6368 48.631 12.4418ZM55.6143 10.0909V10.8651H50.8487V10.0909H55.6143ZM52.4609 7.47727H53.3203V18.4219C53.3203 18.867 53.4055 19.2315 53.576 19.5156C53.7512 19.795 53.9785 20.0033 54.2578 20.1406C54.5419 20.2732 54.8449 20.3395 55.1669 20.3395C55.3232 20.3395 55.4581 20.3277 55.5717 20.304C55.6901 20.2803 55.8014 20.2495 55.9055 20.2116L56.1186 21C55.986 21.0473 55.8393 21.0876 55.6783 21.1207C55.5173 21.1586 55.3279 21.1776 55.1101 21.1776C54.6555 21.1776 54.2247 21.0758 53.8175 20.8722C53.415 20.6686 53.0883 20.3726 52.8374 19.9844C52.5864 19.5961 52.4609 19.1274 52.4609 18.5781V7.47727ZM79.9641 11.7244H76.413C76.3656 11.3598 76.2686 11.0308 76.1218 10.7372C75.975 10.4437 75.7809 10.1927 75.5394 9.98438C75.2979 9.77604 75.0115 9.61742 74.68 9.50852C74.3533 9.39489 73.9911 9.33807 73.5934 9.33807C72.8879 9.33807 72.2795 9.51089 71.7681 9.85653C71.2615 10.2022 70.8709 10.7017 70.5962 11.3551C70.3263 12.0085 70.1914 12.7992 70.1914 13.7273C70.1914 14.6932 70.3287 15.5028 70.6033 16.1562C70.8827 16.8049 71.2733 17.295 71.7752 17.6264C72.2818 17.9531 72.8808 18.1165 73.5721 18.1165C73.9603 18.1165 74.3131 18.0668 74.6303 17.9673C74.9523 17.8679 75.234 17.7235 75.4755 17.5341C75.7217 17.34 75.9229 17.1056 76.0792 16.831C76.2402 16.5516 76.3514 16.2367 76.413 15.8864L79.9641 15.9077C79.9026 16.5516 79.7156 17.1861 79.4031 17.8111C79.0953 18.4361 78.6715 19.0066 78.1317 19.5227C77.592 20.0341 76.9338 20.4413 76.1573 20.7443C75.3855 21.0473 74.5001 21.1989 73.5011 21.1989C72.1848 21.1989 71.0058 20.91 69.9641 20.3324C68.9272 19.75 68.1081 18.9025 67.5067 17.7898C66.9054 16.6771 66.6048 15.3229 66.6048 13.7273C66.6048 12.1269 66.9102 10.7704 67.521 9.65767C68.1317 8.54498 68.958 7.69981 69.9996 7.12216C71.0413 6.54451 72.2085 6.25568 73.5011 6.25568C74.3817 6.25568 75.1961 6.37879 75.9442 6.625C76.6924 6.86648 77.3505 7.22159 77.9187 7.69034C78.4869 8.15436 78.9485 8.72491 79.3036 9.40199C79.6587 10.0791 79.8789 10.8532 79.9641 11.7244ZM99.7045 13.7273C99.7045 15.3277 99.3968 16.6842 98.7812 17.7969C98.1657 18.9096 97.3324 19.7547 96.2812 20.3324C95.2348 20.91 94.0606 21.1989 92.7585 21.1989C91.4517 21.1989 90.2751 20.9077 89.2287 20.3253C88.1823 19.7429 87.3513 18.8977 86.7358 17.7898C86.125 16.6771 85.8196 15.3229 85.8196 13.7273C85.8196 12.1269 86.125 10.7704 86.7358 9.65767C87.3513 8.54498 88.1823 7.69981 89.2287 7.12216C90.2751 6.54451 91.4517 6.25568 92.7585 6.25568C94.0606 6.25568 95.2348 6.54451 96.2812 7.12216C97.3324 7.69981 98.1657 8.54498 98.7812 9.65767C99.3968 10.7704 99.7045 12.1269 99.7045 13.7273ZM96.1108 13.7273C96.1108 12.7803 95.9759 11.9801 95.706 11.3267C95.4408 10.6733 95.0573 10.1785 94.5554 9.84233C94.0582 9.50615 93.4593 9.33807 92.7585 9.33807C92.0625 9.33807 91.4635 9.50615 90.9616 9.84233C90.4598 10.1785 90.0739 10.6733 89.804 11.3267C89.5388 11.9801 89.4062 12.7803 89.4062 13.7273C89.4062 14.6742 89.5388 15.4744 89.804 16.1278C90.0739 16.7812 90.4598 17.276 90.9616 17.6122C91.4635 17.9484 92.0625 18.1165 92.7585 18.1165C93.4593 18.1165 94.0582 17.9484 94.5554 17.6122C95.0573 17.276 95.4408 16.7812 95.706 16.1278C95.9759 15.4744 96.1108 14.6742 96.1108 13.7273ZM118.136 6.45455V21H115.153L109.365 12.6051H109.273V21H105.757V6.45455H108.783L114.507 14.8352H114.628V6.45455H118.136ZM123.871 9.30966V6.45455H136.165V9.30966H131.755V21H128.289V9.30966H123.871ZM143.212 21H139.434L144.341 6.45455H149.022L153.929 21H150.151L146.735 10.1193H146.621L143.212 21ZM142.708 15.2756H150.605V17.946H142.708V15.2756ZM172.015 11.7244H168.464C168.416 11.3598 168.319 11.0308 168.173 10.7372C168.026 10.4437 167.832 10.1927 167.59 9.98438C167.349 9.77604 167.062 9.61742 166.731 9.50852C166.404 9.39489 166.042 9.33807 165.644 9.33807C164.939 9.33807 164.33 9.51089 163.819 9.85653C163.312 10.2022 162.922 10.7017 162.647 11.3551C162.377 12.0085 162.242 12.7992 162.242 13.7273C162.242 14.6932 162.379 15.5028 162.654 16.1562C162.933 16.8049 163.324 17.295 163.826 17.6264C164.333 17.9531 164.932 18.1165 165.623 18.1165C166.011 18.1165 166.364 18.0668 166.681 17.9673C167.003 17.8679 167.285 17.7235 167.526 17.5341C167.772 17.34 167.974 17.1056 168.13 16.831C168.291 16.5516 168.402 16.2367 168.464 15.8864L172.015 15.9077C171.953 16.5516 171.766 17.1861 171.454 17.8111C171.146 18.4361 170.722 19.0066 170.183 19.5227C169.643 20.0341 168.985 20.4413 168.208 20.7443C167.436 21.0473 166.551 21.1989 165.552 21.1989C164.236 21.1989 163.057 20.91 162.015 20.3324C160.978 19.75 160.159 18.9025 159.558 17.7898C158.956 16.6771 158.656 15.3229 158.656 13.7273C158.656 12.1269 158.961 10.7704 159.572 9.65767C160.183 8.54498 161.009 7.69981 162.05 7.12216C163.092 6.54451 164.259 6.25568 165.552 6.25568C166.433 6.25568 167.247 6.37879 167.995 6.625C168.743 6.86648 169.401 7.22159 169.969 7.69034C170.538 8.15436 170.999 8.72491 171.354 9.40199C171.71 10.0791 171.93 10.8532 172.015 11.7244ZM177.551 9.30966V6.45455H189.845V9.30966H185.434V21H181.968V9.30966H177.551ZM208.626 13.7273C208.626 15.3277 208.319 16.6842 207.703 17.7969C207.088 18.9096 206.254 19.7547 205.203 20.3324C204.157 20.91 202.982 21.1989 201.68 21.1989C200.374 21.1989 199.197 20.9077 198.151 20.3253C197.104 19.7429 196.273 18.8977 195.658 17.7898C195.047 16.6771 194.741 15.3229 194.741 13.7273C194.741 12.1269 195.047 10.7704 195.658 9.65767C196.273 8.54498 197.104 7.69981 198.151 7.12216C199.197 6.54451 200.374 6.25568 201.68 6.25568C202.982 6.25568 204.157 6.54451 205.203 7.12216C206.254 7.69981 207.088 8.54498 207.703 9.65767C208.319 10.7704 208.626 12.1269 208.626 13.7273ZM205.033 13.7273C205.033 12.7803 204.898 11.9801 204.628 11.3267C204.363 10.6733 203.979 10.1785 203.477 9.84233C202.98 9.50615 202.381 9.33807 201.68 9.33807C200.984 9.33807 200.385 9.50615 199.884 9.84233C199.382 10.1785 198.996 10.6733 198.726 11.3267C198.461 11.9801 198.328 12.7803 198.328 13.7273C198.328 14.6742 198.461 15.4744 198.726 16.1278C198.996 16.7812 199.382 17.276 199.884 17.6122C200.385 17.9484 200.984 18.1165 201.68 18.1165C202.381 18.1165 202.98 17.9484 203.477 17.6122C203.979 17.276 204.363 16.7812 204.628 16.1278C204.898 15.4744 205.033 14.6742 205.033 13.7273ZM223.605 13.46V12.48H233.005V13.46H223.605ZM223.605 17.28V16.3H233.005V17.28H223.605ZM241.877 23.76C241.49 23.76 241.197 23.6467 240.997 23.42C240.797 23.1933 240.697 22.9067 240.697 22.56V17.18C240.697 16.5933 240.517 16.16 240.157 15.88C239.81 15.5867 239.344 15.44 238.757 15.44V14.12C239.344 14.12 239.81 13.98 240.157 13.7C240.517 13.4067 240.697 12.9667 240.697 12.38V7C240.697 6.65333 240.797 6.36667 240.997 6.14C241.197 5.91333 241.49 5.8 241.877 5.8H243.677V6.7H241.697V12.26C241.697 12.9 241.517 13.44 241.157 13.88C240.81 14.3067 240.35 14.5533 239.777 14.62V14.94C240.35 15.0067 240.81 15.26 241.157 15.7C241.517 16.1267 241.697 16.66 241.697 17.3V22.86H243.677V23.76H241.877ZM11.7866 135.8C12.1732 135.8 12.4666 135.913 12.6666 136.14C12.8666 136.367 12.9666 136.653 12.9666 137V142.38C12.9666 142.967 13.1399 143.407 13.4866 143.7C13.8466 143.98 14.3199 144.12 14.9066 144.12V145.44C14.3199 145.44 13.8466 145.587 13.4866 145.88C13.1399 146.16 12.9666 146.593 12.9666 147.18V152.56C12.9666 152.907 12.8666 153.193 12.6666 153.42C12.4666 153.647 12.1732 153.76 11.7866 153.76H9.98656V152.86H11.9666V147.3C11.9666 146.66 12.1399 146.127 12.4866 145.7C12.8466 145.26 13.3199 145.007 13.9066 144.94V144.62C13.3199 144.553 12.8466 144.307 12.4866 143.88C12.1399 143.44 11.9666 142.9 11.9666 142.26V136.7H9.98656V135.8H11.7866Z" fill="white"/>
<path d="M35.7102 44.9901V42.4545H47.6562V44.9901H43.2031V57H40.1634V44.9901H35.7102ZM52.9563 57.2131C51.8342 57.2131 50.8683 56.9858 50.0586 56.5312C49.2537 56.072 48.6334 55.4233 48.1978 54.5852C47.7622 53.7424 47.5444 52.7457 47.5444 51.5952C47.5444 50.473 47.7622 49.4882 48.1978 48.6406C48.6334 47.7931 49.2466 47.1326 50.0373 46.6591C50.8327 46.1856 51.7655 45.9489 52.8356 45.9489C53.5553 45.9489 54.2253 46.0649 54.8455 46.2969C55.4705 46.5241 56.015 46.8674 56.479 47.3267C56.9478 47.786 57.3124 48.3636 57.5728 49.0597C57.8332 49.7509 57.9634 50.5606 57.9634 51.4886V52.3196H48.7518V50.4446H55.1154C55.1154 50.009 55.0207 49.6231 54.8313 49.2869C54.6419 48.9508 54.3791 48.688 54.043 48.4986C53.7115 48.3045 53.3256 48.2074 52.8853 48.2074C52.426 48.2074 52.0188 48.3139 51.6637 48.527C51.3133 48.7353 51.0387 49.017 50.8398 49.3722C50.641 49.7225 50.5392 50.1132 50.5344 50.544V52.3267C50.5344 52.8665 50.6339 53.3329 50.8327 53.7259C51.0363 54.1188 51.3228 54.4219 51.6921 54.6349C52.0614 54.848 52.4994 54.9545 53.006 54.9545C53.3422 54.9545 53.65 54.9072 53.9293 54.8125C54.2087 54.7178 54.4478 54.5758 54.6467 54.3864C54.8455 54.197 54.997 53.965 55.1012 53.6903L57.8995 53.875C57.7575 54.5473 57.4663 55.1345 57.0259 55.6364C56.5903 56.1335 56.0269 56.5218 55.3356 56.8011C54.649 57.0758 53.8559 57.2131 52.9563 57.2131ZM62.9634 42.4545V57H59.9379V42.4545H62.9634ZM71.7844 57.1847C71.3157 57.1847 70.9132 57.0189 70.5771 56.6875C70.2456 56.3513 70.0799 55.9489 70.0799 55.4801C70.0799 55.0161 70.2456 54.6184 70.5771 54.2869C70.9132 53.9555 71.3157 53.7898 71.7844 53.7898C72.239 53.7898 72.6367 53.9555 72.9776 54.2869C73.3185 54.6184 73.489 55.0161 73.489 55.4801C73.489 55.7926 73.4085 56.0791 73.2475 56.3395C73.0913 56.5952 72.8853 56.8011 72.6296 56.9574C72.3739 57.1089 72.0922 57.1847 71.7844 57.1847ZM71.7844 49.5426C71.3157 49.5426 70.9132 49.3769 70.5771 49.0455C70.2456 48.714 70.0799 48.3116 70.0799 47.8381C70.0799 47.3741 70.2456 46.9787 70.5771 46.652C70.9132 46.3205 71.3157 46.1548 71.7844 46.1548C72.239 46.1548 72.6367 46.3205 72.9776 46.652C73.3185 46.9787 73.489 47.3741 73.489 47.8381C73.489 48.1553 73.4085 48.4441 73.2475 48.7045C73.0913 48.9602 72.8853 49.1638 72.6296 49.3153C72.3739 49.4669 72.0922 49.5426 71.7844 49.5426ZM154.737 54.2443V45.2457H155.952V54.2443H154.737ZM150.845 50.3523V49.1378H159.844V50.3523H150.845ZM167.729 57.1989C166.919 57.1989 166.195 57.0355 165.556 56.7088C164.921 56.3774 164.415 55.9228 164.036 55.3452C163.662 54.7675 163.463 54.107 163.439 53.3636H164.725C164.767 54.1354 165.07 54.7699 165.634 55.267C166.197 55.7595 166.896 56.0057 167.729 56.0057C168.378 56.0057 168.955 55.8518 169.462 55.544C169.969 55.2315 170.364 54.8054 170.648 54.2656C170.937 53.7211 171.081 53.108 171.081 52.4261C171.077 51.7159 170.923 51.0909 170.62 50.5511C170.317 50.0066 169.905 49.5805 169.384 49.2727C168.868 48.965 168.288 48.8111 167.644 48.8111C167.156 48.8063 166.678 48.8868 166.209 49.0526C165.74 49.2183 165.35 49.4313 165.037 49.6918L163.709 49.5213L164.583 42.4545H171.77V43.6477H165.698L165.115 48.5128H165.186C165.508 48.2429 165.899 48.0227 166.358 47.8523C166.822 47.6818 167.312 47.5966 167.828 47.5966C168.685 47.5966 169.455 47.8026 170.137 48.2145C170.823 48.6264 171.365 49.1946 171.763 49.919C172.166 50.6387 172.367 51.4673 172.367 52.4048C172.367 53.3234 172.166 54.1449 171.763 54.8693C171.365 55.589 170.816 56.1572 170.115 56.5739C169.419 56.9905 168.624 57.1989 167.729 57.1989ZM175.041 53.875V52.7955L181.525 42.4545H182.321V44.2656H181.731L176.525 52.5895V52.6818H185.027V53.875H175.041ZM181.831 57V53.5341V53.0369V42.4545H183.095V57H181.831ZM192.202 42.4545V57H190.874V43.8466H190.788L187.379 46.1122V44.7344L190.817 42.4545H192.202ZM201.108 42.4545V57H199.78V43.8466H199.695L196.286 46.1122V44.7344L199.723 42.4545H201.108ZM210.249 57.1989C209.354 57.1989 208.554 57.0379 207.848 56.7159C207.143 56.3892 206.584 55.937 206.172 55.3594C205.76 54.7817 205.542 54.1165 205.518 53.3636H206.861C206.884 53.8939 207.048 54.358 207.351 54.7557C207.654 55.1487 208.056 55.4564 208.558 55.679C209.06 55.8968 209.619 56.0057 210.234 56.0057C210.907 56.0057 211.499 55.8802 212.01 55.6293C212.526 55.3783 212.929 55.035 213.217 54.5994C213.511 54.1591 213.658 53.6619 213.658 53.108C213.658 52.5208 213.509 52.0024 213.21 51.5526C212.912 51.1027 212.483 50.7524 211.925 50.5014C211.371 50.2505 210.708 50.125 209.936 50.125H209.084V48.9318H209.936C210.566 48.9318 211.122 48.8182 211.605 48.5909C212.093 48.3589 212.476 48.0346 212.756 47.6179C213.035 47.2012 213.175 46.7112 213.175 46.1477C213.175 45.6127 213.054 45.1416 212.812 44.7344C212.571 44.3272 212.23 44.0076 211.79 43.7756C211.354 43.5436 210.845 43.4276 210.263 43.4276C209.699 43.4276 209.183 43.5365 208.714 43.7543C208.246 43.9721 207.867 44.2798 207.578 44.6776C207.294 45.0753 207.143 45.5464 207.124 46.0909H205.838C205.857 45.3333 206.065 44.6681 206.463 44.0952C206.866 43.5175 207.398 43.0677 208.061 42.7457C208.729 42.419 209.467 42.2557 210.277 42.2557C211.134 42.2557 211.875 42.4309 212.5 42.7812C213.125 43.1316 213.608 43.598 213.949 44.1804C214.295 44.758 214.467 45.3949 214.467 46.0909C214.467 46.9195 214.242 47.6297 213.793 48.2216C213.343 48.8087 212.737 49.2159 211.974 49.4432V49.5355C212.902 49.7202 213.632 50.1321 214.162 50.7713C214.697 51.4058 214.964 52.1847 214.964 53.108C214.964 53.8845 214.761 54.5829 214.354 55.2031C213.946 55.8187 213.388 56.3063 212.678 56.6662C211.972 57.0213 211.162 57.1989 210.249 57.1989ZM222.685 57.1989C222.083 57.1941 221.496 57.0734 220.923 56.8366C220.35 56.5952 219.834 56.2093 219.375 55.679C218.916 55.1439 218.551 54.4384 218.281 53.5625C218.011 52.6866 217.876 51.6094 217.876 50.331C217.876 49.1473 217.981 48.063 218.189 47.0781C218.397 46.0933 218.71 45.241 219.126 44.5213C219.543 43.8016 220.064 43.2453 220.689 42.8523C221.314 42.4545 222.045 42.2557 222.884 42.2557C223.67 42.2557 224.363 42.419 224.964 42.7457C225.566 43.0677 226.054 43.5175 226.428 44.0952C226.802 44.6728 227.036 45.3381 227.131 46.0909H225.824C225.691 45.3239 225.376 44.6918 224.879 44.1946C224.382 43.6974 223.717 43.4489 222.884 43.4489C221.69 43.4489 220.767 44.0028 220.114 45.1108C219.46 46.214 219.131 47.7812 219.126 49.8125H219.219C219.451 49.3816 219.749 49.0099 220.114 48.6974C220.483 48.3802 220.902 48.134 221.371 47.9588C221.839 47.7789 222.332 47.6889 222.848 47.6889C223.658 47.6889 224.399 47.8949 225.071 48.3068C225.743 48.714 226.281 49.2751 226.683 49.9901C227.086 50.7003 227.287 51.5123 227.287 52.4261C227.287 53.2926 227.095 54.0904 226.712 54.8196C226.333 55.5488 225.798 56.1288 225.107 56.5597C224.42 56.9905 223.613 57.2036 222.685 57.1989ZM222.685 56.0057C223.319 56.0057 223.885 55.8447 224.382 55.5227C224.884 55.2008 225.279 54.7699 225.568 54.2301C225.857 53.6856 226.001 53.0843 226.001 52.4261C226.001 51.768 225.857 51.1714 225.568 50.6364C225.279 50.1013 224.884 49.6752 224.382 49.358C223.885 49.0407 223.319 48.8821 222.685 48.8821C222.202 48.8821 221.752 48.9815 221.335 49.1804C220.919 49.3745 220.556 49.642 220.249 49.983C219.946 50.3191 219.714 50.705 219.553 51.1406C219.396 51.5762 219.337 52.0331 219.375 52.5114C219.427 53.179 219.6 53.7779 219.893 54.3082C220.192 54.8338 220.58 55.2481 221.058 55.5511C221.541 55.8542 222.083 56.0057 222.685 56.0057ZM234.787 57.1989C233.859 57.1989 233.033 57.0237 232.308 56.6733C231.584 56.3229 231.016 55.8447 230.604 55.2386C230.192 54.6278 229.986 53.9389 229.986 53.1719C229.986 52.5705 230.111 52.0095 230.362 51.4886C230.613 50.9631 230.959 50.5227 231.399 50.1676C231.839 49.8078 232.334 49.5734 232.884 49.4645V49.3864C232.169 49.178 231.593 48.7685 231.158 48.1577C230.722 47.5421 230.507 46.8438 230.511 46.0625C230.507 45.3381 230.691 44.6894 231.065 44.1165C231.439 43.5436 231.948 43.0914 232.592 42.7599C233.241 42.4238 233.973 42.2557 234.787 42.2557C235.597 42.2557 236.323 42.4238 236.967 42.7599C237.611 43.0914 238.12 43.5436 238.494 44.1165C238.873 44.6894 239.065 45.3381 239.07 46.0625C239.065 46.839 238.845 47.5374 238.409 48.1577C237.973 48.7732 237.401 49.1828 236.69 49.3864V49.4645C237.24 49.5687 237.732 49.8007 238.168 50.1605C238.603 50.5204 238.949 50.9631 239.205 51.4886C239.46 52.0095 239.588 52.5705 239.588 53.1719C239.588 53.9389 239.38 54.6278 238.963 55.2386C238.551 55.8447 237.983 56.3229 237.259 56.6733C236.539 57.0237 235.715 57.1989 234.787 57.1989ZM234.787 56.0057C235.478 56.0057 236.084 55.8826 236.605 55.6364C237.131 55.3854 237.54 55.0421 237.834 54.6065C238.132 54.1709 238.281 53.6714 238.281 53.108C238.281 52.5256 238.127 52.0071 237.82 51.5526C237.512 51.0933 237.095 50.7311 236.57 50.4659C236.044 50.196 235.45 50.0611 234.787 50.0611C234.124 50.0611 233.527 50.196 232.997 50.4659C232.472 50.7311 232.055 51.0933 231.747 51.5526C231.444 52.0071 231.293 52.5256 231.293 53.108C231.293 53.6714 231.437 54.1709 231.726 54.6065C232.019 55.0421 232.429 55.3854 232.955 55.6364C233.485 55.8826 234.096 56.0057 234.787 56.0057ZM234.787 48.9247C235.355 48.9247 235.864 48.804 236.314 48.5625C236.764 48.321 237.119 47.992 237.379 47.5753C237.644 47.1539 237.779 46.6757 237.784 46.1406C237.779 45.6103 237.647 45.1416 237.386 44.7344C237.126 44.3224 236.771 44.0028 236.321 43.7756C235.876 43.5436 235.365 43.4276 234.787 43.4276C234.209 43.4276 233.693 43.5436 233.239 43.7756C232.789 44.0028 232.434 44.3224 232.173 44.7344C231.918 45.1416 231.792 45.6103 231.797 46.1406C231.792 46.6757 231.92 47.1539 232.18 47.5753C232.446 47.992 232.803 48.321 233.253 48.5625C233.707 48.804 234.219 48.9247 234.787 48.9247ZM247.054 57.1989C246.032 57.1989 245.158 56.9053 244.434 56.3182C243.714 55.7263 243.16 54.8717 242.772 53.7543C242.388 52.6368 242.196 51.2945 242.196 49.7273C242.196 48.1648 242.388 46.8272 242.772 45.7145C243.16 44.5971 243.716 43.7424 244.441 43.1506C245.17 42.554 246.041 42.2557 247.054 42.2557C248.068 42.2557 248.936 42.554 249.661 43.1506C250.39 43.7424 250.946 44.5971 251.33 45.7145C251.718 46.8272 251.912 48.1648 251.912 49.7273C251.912 51.2945 251.718 52.6368 251.33 53.7543C250.946 54.8717 250.392 55.7263 249.668 56.3182C248.948 56.9053 248.077 57.1989 247.054 57.1989ZM247.054 56.0057C248.176 56.0057 249.052 55.4588 249.682 54.3651C250.312 53.2666 250.627 51.7206 250.627 49.7273C250.627 48.4015 250.482 47.2699 250.194 46.3324C249.909 45.3902 249.5 44.6705 248.965 44.1733C248.435 43.6761 247.798 43.4276 247.054 43.4276C245.942 43.4276 245.068 43.9815 244.434 45.0895C243.799 46.1927 243.482 47.7386 243.482 49.7273C243.482 51.053 243.624 52.1847 243.908 53.1222C244.197 54.0597 244.606 54.7746 245.137 55.267C245.672 55.7595 246.311 56.0057 247.054 56.0057ZM259.32 57.1989C258.297 57.1989 257.424 56.9053 256.699 56.3182C255.98 55.7263 255.426 54.8717 255.037 53.7543C254.654 52.6368 254.462 51.2945 254.462 49.7273C254.462 48.1648 254.654 46.8272 255.037 45.7145C255.426 44.5971 255.982 43.7424 256.706 43.1506C257.435 42.554 258.307 42.2557 259.32 42.2557C260.333 42.2557 261.202 42.554 261.926 43.1506C262.656 43.7424 263.212 44.5971 263.596 45.7145C263.984 46.8272 264.178 48.1648 264.178 49.7273C264.178 51.2945 263.984 52.6368 263.596 53.7543C263.212 54.8717 262.658 55.7263 261.934 56.3182C261.214 56.9053 260.343 57.1989 259.32 57.1989ZM259.32 56.0057C260.442 56.0057 261.318 55.4588 261.948 54.3651C262.578 53.2666 262.892 51.7206 262.892 49.7273C262.892 48.4015 262.748 47.2699 262.459 46.3324C262.175 45.3902 261.766 44.6705 261.23 44.1733C260.7 43.6761 260.063 43.4276 259.32 43.4276C258.207 43.4276 257.334 43.9815 256.699 45.0895C256.065 46.1927 255.748 47.7386 255.748 49.7273C255.748 51.053 255.89 52.1847 256.174 53.1222C256.462 54.0597 256.872 54.7746 257.402 55.267C257.937 55.7595 258.577 56.0057 259.32 56.0057ZM266.721 53.875V52.7955L273.205 42.4545H274V44.2656H273.411L268.205 52.5895V52.6818H276.706V53.875H266.721ZM273.51 57V53.5341V53.0369V42.4545H274.775V57H273.51ZM279.588 57V56.027L284.339 50.6861C284.96 49.9853 285.459 49.3864 285.838 48.8892C286.217 48.392 286.491 47.9328 286.662 47.5114C286.837 47.09 286.925 46.652 286.925 46.1974C286.925 45.6435 286.795 45.1605 286.534 44.7486C286.278 44.3319 285.926 44.0076 285.476 43.7756C285.026 43.5436 284.519 43.4276 283.956 43.4276C283.359 43.4276 282.836 43.5554 282.386 43.8111C281.941 44.0668 281.596 44.4171 281.349 44.8622C281.103 45.3073 280.98 45.8187 280.98 46.3963H279.709C279.709 45.5914 279.893 44.8788 280.263 44.2585C280.637 43.6335 281.146 43.1435 281.79 42.7884C282.438 42.4332 283.172 42.2557 283.991 42.2557C284.801 42.2557 285.521 42.4309 286.151 42.7812C286.78 43.1269 287.275 43.598 287.635 44.1946C287.995 44.7912 288.175 45.4588 288.175 46.1974C288.175 46.7325 288.08 47.2509 287.891 47.7528C287.706 48.2547 287.386 48.8134 286.932 49.429C286.477 50.0445 285.848 50.7973 285.043 51.6875L281.435 55.7145V55.8068H288.629V57H279.588ZM291.135 53.875V52.7955L297.619 42.4545H298.414V44.2656H297.825L292.619 52.5895V52.6818H301.12V53.875H291.135ZM297.924 57V53.5341V53.0369V42.4545H299.189V57H297.924ZM312.504 55.0114L312.425 55.7926C312.364 56.4176 312.246 57.0402 312.07 57.6605C311.9 58.2855 311.72 58.8513 311.531 59.358C311.346 59.8646 311.197 60.2623 311.083 60.5511H309.123C309.194 60.2718 309.291 59.8812 309.414 59.3793C309.537 58.8821 309.653 58.3234 309.762 57.7031C309.871 57.0829 309.94 56.4508 309.968 55.8068L310.004 55.0114H312.504ZM36.2642 85V70.4545H46.0653V72.9901H39.3395V76.456H45.5611V78.9915H39.3395V82.4645H46.0938V85H36.2642ZM48.4535 85V74.0909H51.337V76.0156H51.4648C51.6921 75.3764 52.0709 74.8722 52.6012 74.5028C53.1315 74.1335 53.766 73.9489 54.5046 73.9489C55.2527 73.9489 55.8896 74.1359 56.4151 74.5099C56.9407 74.8793 57.2911 75.3812 57.4663 76.0156H57.5799C57.8024 75.3906 58.2049 74.8911 58.7873 74.517C59.3744 74.1383 60.0681 73.9489 60.8683 73.9489C61.8862 73.9489 62.7125 74.2732 63.3469 74.9219C63.9862 75.5658 64.3058 76.4796 64.3058 77.6634V85H61.2873V78.2599C61.2873 77.6539 61.1263 77.1993 60.8043 76.8963C60.4824 76.5933 60.0799 76.4418 59.5969 76.4418C59.0477 76.4418 58.6192 76.617 58.3114 76.9673C58.0037 77.313 57.8498 77.7699 57.8498 78.3381V85H54.9165V78.196C54.9165 77.661 54.7627 77.2348 54.4549 76.9176C54.1519 76.6004 53.7518 76.4418 53.2546 76.4418C52.9184 76.4418 52.6154 76.527 52.3455 76.6974C52.0804 76.8632 51.8697 77.0975 51.7134 77.4006C51.5572 77.6989 51.479 78.0492 51.479 78.4517V85H48.4535ZM69.8065 85.206C69.1104 85.206 68.4902 85.0852 67.9457 84.8438C67.4012 84.5975 66.9703 84.2353 66.6531 83.7571C66.3406 83.2741 66.1843 82.6728 66.1843 81.9531C66.1843 81.3471 66.2956 80.8381 66.5181 80.4261C66.7406 80.0142 67.0437 79.6828 67.4272 79.4318C67.8107 79.1809 68.2463 78.9915 68.734 78.8636C69.2264 78.7358 69.7425 78.6458 70.2823 78.5938C70.9168 78.5275 71.4281 78.4659 71.8164 78.4091C72.2047 78.3475 72.4864 78.2576 72.6616 78.1392C72.8368 78.0208 72.9244 77.8456 72.9244 77.6136V77.571C72.9244 77.1212 72.7823 76.7732 72.4982 76.527C72.2189 76.2808 71.8211 76.1577 71.305 76.1577C70.7605 76.1577 70.3273 76.2784 70.0053 76.5199C69.6834 76.7566 69.4703 77.0549 69.3661 77.4148L66.5678 77.1875C66.7099 76.5246 66.9892 75.9517 67.4059 75.4688C67.8226 74.9811 68.36 74.607 69.0181 74.3466C69.681 74.0814 70.448 73.9489 71.3192 73.9489C71.9253 73.9489 72.5053 74.0199 73.0593 74.1619C73.618 74.304 74.1128 74.5241 74.5437 74.8224C74.9793 75.1207 75.3226 75.5043 75.5735 75.973C75.8245 76.437 75.9499 76.9934 75.9499 77.642V85H73.0806V83.4872H72.9954C72.8202 83.8281 72.5858 84.1288 72.2923 84.3892C71.9987 84.6449 71.646 84.8461 71.234 84.9929C70.8221 85.1349 70.3462 85.206 69.8065 85.206ZM70.6729 83.1179C71.118 83.1179 71.511 83.0303 71.8519 82.8551C72.1928 82.6752 72.4603 82.4337 72.6545 82.1307C72.8486 81.8277 72.9457 81.4844 72.9457 81.1009V79.9432C72.851 80.0047 72.7208 80.0616 72.555 80.1136C72.3941 80.161 72.2118 80.206 72.0082 80.2486C71.8046 80.2865 71.601 80.322 71.3974 80.3551C71.1938 80.3835 71.0091 80.4096 70.8434 80.4332C70.4883 80.4853 70.1781 80.5682 69.913 80.6818C69.6478 80.7955 69.4419 80.9493 69.2951 81.1435C69.1483 81.3329 69.0749 81.5696 69.0749 81.8537C69.0749 82.2656 69.2241 82.5805 69.5224 82.7983C69.8254 83.0114 70.2089 83.1179 70.6729 83.1179ZM78.2972 85V74.0909H81.3228V85H78.2972ZM79.8171 72.6847C79.3673 72.6847 78.9814 72.5355 78.6594 72.2372C78.3422 71.9342 78.1836 71.572 78.1836 71.1506C78.1836 70.7339 78.3422 70.3764 78.6594 70.0781C78.9814 69.7751 79.3673 69.6236 79.8171 69.6236C80.2669 69.6236 80.6504 69.7751 80.9677 70.0781C81.2897 70.3764 81.4506 70.7339 81.4506 71.1506C81.4506 71.572 81.2897 71.9342 80.9677 72.2372C80.6504 72.5355 80.2669 72.6847 79.8171 72.6847ZM86.772 70.4545V85H83.7464V70.4545H86.772ZM95.593 85.1847C95.1243 85.1847 94.7218 85.0189 94.3857 84.6875C94.0542 84.3513 93.8885 83.9489 93.8885 83.4801C93.8885 83.0161 94.0542 82.6184 94.3857 82.2869C94.7218 81.9555 95.1243 81.7898 95.593 81.7898C96.0476 81.7898 96.4453 81.9555 96.7862 82.2869C97.1271 82.6184 97.2976 83.0161 97.2976 83.4801C97.2976 83.7926 97.2171 84.0791 97.0561 84.3395C96.8999 84.5952 96.6939 84.8011 96.4382 84.9574C96.1825 85.1089 95.9008 85.1847 95.593 85.1847ZM95.593 77.5426C95.1243 77.5426 94.7218 77.3769 94.3857 77.0455C94.0542 76.714 93.8885 76.3116 93.8885 75.8381C93.8885 75.3741 94.0542 74.9787 94.3857 74.652C94.7218 74.3205 95.1243 74.1548 95.593 74.1548C96.0476 74.1548 96.4453 74.3205 96.7862 74.652C97.1271 74.9787 97.2976 75.3741 97.2976 75.8381C97.2976 76.1553 97.2171 76.4441 97.0561 76.7045C96.8999 76.9602 96.6939 77.1638 96.4382 77.3153C96.1825 77.4669 95.9008 77.5426 95.593 77.5426ZM146.795 85V70.4545H155.211V71.6477H148.123V77.1236H154.551V78.3168H148.123V85H146.795ZM161.861 85.2273C160.843 85.2273 159.962 84.9905 159.219 84.517C158.475 84.0388 157.9 83.3783 157.493 82.5355C157.09 81.688 156.889 80.7126 156.889 79.6094C156.889 78.5109 157.09 77.5355 157.493 76.6832C157.9 75.8262 158.461 75.1562 159.176 74.6733C159.896 74.1856 160.727 73.9418 161.669 73.9418C162.261 73.9418 162.831 74.0507 163.381 74.2685C163.93 74.4815 164.422 74.8106 164.858 75.2557C165.298 75.696 165.646 76.2524 165.902 76.9247C166.158 77.5923 166.286 78.383 166.286 79.2969V79.9219H157.763V78.8068H164.993C164.993 78.1061 164.851 77.4763 164.567 76.9176C164.287 76.3542 163.897 75.9091 163.395 75.5824C162.898 75.2557 162.322 75.0923 161.669 75.0923C160.978 75.0923 160.369 75.277 159.844 75.6463C159.318 76.0156 158.906 76.5033 158.608 77.1094C158.314 77.7154 158.165 78.3783 158.161 79.098V79.7656C158.161 80.6321 158.31 81.3897 158.608 82.0384C158.911 82.6823 159.339 83.1818 159.893 83.5369C160.447 83.892 161.103 84.0696 161.861 84.0696C162.377 84.0696 162.829 83.9891 163.217 83.8281C163.61 83.6671 163.939 83.4517 164.205 83.1818C164.474 82.9072 164.678 82.6065 164.815 82.2798L166.016 82.6705C165.85 83.1297 165.578 83.5535 165.199 83.9418C164.825 84.33 164.356 84.6425 163.793 84.8793C163.234 85.1113 162.59 85.2273 161.861 85.2273ZM172.999 85.2273C172.104 85.2273 171.32 84.9905 170.648 84.517C169.976 84.0436 169.45 83.383 169.071 82.5355C168.697 81.688 168.51 80.7008 168.51 79.5739C168.51 78.4517 168.697 77.4692 169.071 76.6264C169.45 75.7789 169.978 75.1207 170.655 74.652C171.332 74.1785 172.121 73.9418 173.02 73.9418C173.683 73.9418 174.235 74.0601 174.675 74.2969C175.115 74.5289 175.468 74.8177 175.733 75.1634C175.998 75.509 176.204 75.8452 176.351 76.1719H176.465V70.4545H177.736V85H176.5V82.9759H176.351C176.204 83.3073 175.996 83.6482 175.726 83.9986C175.456 84.3442 175.099 84.6354 174.654 84.8722C174.213 85.1089 173.662 85.2273 172.999 85.2273ZM173.148 84.0696C173.854 84.0696 174.455 83.8778 174.952 83.4943C175.449 83.1061 175.828 82.5734 176.088 81.8963C176.354 81.2145 176.486 80.4332 176.486 79.5526C176.486 78.6813 176.356 77.9119 176.096 77.2443C175.835 76.572 175.456 76.0464 174.959 75.6676C174.462 75.2841 173.858 75.0923 173.148 75.0923C172.419 75.0923 171.803 75.2912 171.301 75.6889C170.804 76.0819 170.426 76.6146 170.165 77.2869C169.909 77.9593 169.782 78.7145 169.782 79.5526C169.782 80.4001 169.912 81.1648 170.172 81.8466C170.433 82.5284 170.811 83.0705 171.309 83.473C171.81 83.8707 172.424 84.0696 173.148 84.0696ZM185.748 85.2273C184.73 85.2273 183.849 84.9905 183.105 84.517C182.362 84.0388 181.787 83.3783 181.38 82.5355C180.977 81.688 180.776 80.7126 180.776 79.6094C180.776 78.5109 180.977 77.5355 181.38 76.6832C181.787 75.8262 182.348 75.1562 183.063 74.6733C183.783 74.1856 184.614 73.9418 185.556 73.9418C186.148 73.9418 186.718 74.0507 187.267 74.2685C187.817 74.4815 188.309 74.8106 188.745 75.2557C189.185 75.696 189.533 76.2524 189.789 76.9247C190.044 77.5923 190.172 78.383 190.172 79.2969V79.9219H181.65V78.8068H188.88C188.88 78.1061 188.738 77.4763 188.453 76.9176C188.174 76.3542 187.783 75.9091 187.282 75.5824C186.784 75.2557 186.209 75.0923 185.556 75.0923C184.864 75.0923 184.256 75.277 183.73 75.6463C183.205 76.0156 182.793 76.5033 182.495 77.1094C182.201 77.7154 182.052 78.3783 182.047 79.098V79.7656C182.047 80.6321 182.196 81.3897 182.495 82.0384C182.798 82.6823 183.226 83.1818 183.78 83.5369C184.334 83.892 184.99 84.0696 185.748 84.0696C186.264 84.0696 186.716 83.9891 187.104 83.8281C187.497 83.6671 187.826 83.4517 188.091 83.1818C188.361 82.9072 188.565 82.6065 188.702 82.2798L189.902 82.6705C189.737 83.1297 189.464 83.5535 189.086 83.9418C188.712 84.33 188.243 84.6425 187.679 84.8793C187.121 85.1113 186.477 85.2273 185.748 85.2273ZM192.958 85V74.0909H194.187V75.767H194.279C194.497 75.2178 194.876 74.7751 195.415 74.4389C195.96 74.098 196.576 73.9276 197.262 73.9276C197.366 73.9276 197.482 73.9299 197.61 73.9347C197.738 73.9394 197.844 73.9441 197.93 73.9489V75.2344C197.873 75.2249 197.773 75.2107 197.631 75.1918C197.489 75.1728 197.335 75.1634 197.17 75.1634C196.602 75.1634 196.095 75.2841 195.65 75.5256C195.21 75.7623 194.862 76.0914 194.606 76.5128C194.35 76.9342 194.222 77.4148 194.222 77.9545V85H192.958ZM200.101 85V74.0909H201.373V85H200.101ZM200.748 72.2159C200.487 72.2159 200.265 72.1283 200.08 71.9531C199.895 71.7732 199.803 71.5578 199.803 71.3068C199.803 71.0559 199.895 70.8428 200.08 70.6676C200.265 70.4877 200.487 70.3977 200.748 70.3977C201.008 70.3977 201.23 70.4877 201.415 70.6676C201.6 70.8428 201.692 71.0559 201.692 71.3068C201.692 71.5578 201.6 71.7732 201.415 71.9531C201.23 72.1283 201.008 72.2159 200.748 72.2159ZM208.977 85.2273C208.002 85.2273 207.152 84.9834 206.428 84.4957C205.708 84.008 205.149 83.3404 204.751 82.4929C204.354 81.6454 204.155 80.6795 204.155 79.5952C204.155 78.5014 204.356 77.5284 204.759 76.6761C205.166 75.8239 205.729 75.1562 206.449 74.6733C207.169 74.1856 208.004 73.9418 208.956 73.9418C209.685 73.9418 210.346 74.0838 210.938 74.3679C211.529 74.6473 212.017 75.0426 212.401 75.554C212.789 76.0606 213.033 76.6525 213.132 77.3295H211.854C211.721 76.714 211.402 76.1884 210.895 75.7528C210.393 75.3125 209.754 75.0923 208.977 75.0923C208.281 75.0923 207.666 75.2817 207.131 75.6605C206.596 76.0346 206.177 76.5578 205.874 77.2301C205.575 77.8977 205.426 78.6719 205.426 79.5526C205.426 80.438 205.573 81.2216 205.866 81.9034C206.16 82.5805 206.572 83.1108 207.102 83.4943C207.637 83.8778 208.262 84.0696 208.977 84.0696C209.46 84.0696 209.901 83.9796 210.298 83.7997C210.701 83.6151 211.037 83.3546 211.307 83.0185C211.581 82.6823 211.766 82.2822 211.861 81.8182H213.139C213.045 82.4763 212.81 83.0634 212.436 83.5795C212.067 84.0909 211.586 84.4934 210.994 84.7869C210.407 85.0805 209.735 85.2273 208.977 85.2273ZM220.089 85.2273C219.147 85.2273 218.313 84.9882 217.589 84.5099C216.869 84.0317 216.306 83.3712 215.898 82.5284C215.491 81.6809 215.288 80.7031 215.288 79.5952C215.288 78.4777 215.491 77.4953 215.898 76.6477C216.306 75.7955 216.869 75.1326 217.589 74.6591C218.313 74.1809 219.147 73.9418 220.089 73.9418C221.031 73.9418 221.862 74.1809 222.582 74.6591C223.301 75.1373 223.865 75.8002 224.272 76.6477C224.684 77.4953 224.89 78.4777 224.89 79.5952C224.89 80.7031 224.686 81.6809 224.279 82.5284C223.872 83.3712 223.306 84.0317 222.582 84.5099C221.862 84.9882 221.031 85.2273 220.089 85.2273ZM220.089 84.0696C220.846 84.0696 221.488 83.866 222.013 83.4588C222.539 83.0516 222.937 82.5095 223.207 81.8324C223.481 81.1553 223.619 80.4096 223.619 79.5952C223.619 78.7808 223.481 78.0327 223.207 77.3509C222.937 76.669 222.539 76.1222 222.013 75.7102C221.488 75.2983 220.846 75.0923 220.089 75.0923C219.336 75.0923 218.694 75.2983 218.164 75.7102C217.638 76.1222 217.238 76.669 216.964 77.3509C216.694 78.0327 216.559 78.7808 216.559 79.5952C216.559 80.4096 216.694 81.1553 216.964 81.8324C217.238 82.5095 217.638 83.0516 218.164 83.4588C218.69 83.866 219.331 84.0696 220.089 84.0696ZM227.665 85V74.0909H228.894V75.767H228.986C229.204 75.2178 229.583 74.7751 230.123 74.4389C230.667 74.098 231.283 73.9276 231.969 73.9276C232.073 73.9276 232.189 73.9299 232.317 73.9347C232.445 73.9394 232.551 73.9441 232.637 73.9489V75.2344C232.58 75.2249 232.48 75.2107 232.338 75.1918C232.196 75.1728 232.042 75.1634 231.877 75.1634C231.309 75.1634 230.802 75.2841 230.357 75.5256C229.917 75.7623 229.569 76.0914 229.313 76.5128C229.057 76.9342 228.929 77.4148 228.929 77.9545V85H227.665ZM237.841 85.2486C237.183 85.2486 236.581 85.1207 236.037 84.8651C235.492 84.6046 235.059 84.2306 234.737 83.7429C234.415 83.2505 234.254 82.6539 234.254 81.9531C234.254 81.4134 234.356 80.9588 234.56 80.5895C234.763 80.2202 235.052 79.9171 235.426 79.6804C235.8 79.4437 236.243 79.2566 236.754 79.1193C237.266 78.982 237.829 78.8755 238.445 78.7997C239.055 78.724 239.571 78.6577 239.993 78.6009C240.419 78.544 240.743 78.4541 240.966 78.331C241.188 78.2079 241.3 78.009 241.3 77.7344V77.4787C241.3 76.7353 241.077 76.1506 240.632 75.7244C240.192 75.2936 239.557 75.0781 238.729 75.0781C237.943 75.0781 237.301 75.2509 236.804 75.5966C236.312 75.9422 235.966 76.3494 235.767 76.8182L234.567 76.3849C234.813 75.7884 235.154 75.3125 235.589 74.9574C236.025 74.5975 236.513 74.3395 237.053 74.1832C237.592 74.0223 238.139 73.9418 238.693 73.9418C239.11 73.9418 239.543 73.9962 239.993 74.1051C240.447 74.214 240.869 74.4034 241.257 74.6733C241.645 74.9384 241.96 75.3101 242.202 75.7884C242.443 76.2618 242.564 76.8632 242.564 77.5923V85H241.3V83.2741H241.222C241.07 83.5961 240.845 83.9086 240.547 84.2116C240.249 84.5147 239.875 84.7633 239.425 84.9574C238.975 85.1515 238.447 85.2486 237.841 85.2486ZM238.011 84.0909C238.684 84.0909 239.266 83.9418 239.759 83.6435C240.251 83.3452 240.63 82.9498 240.895 82.4574C241.165 81.9602 241.3 81.4134 241.3 80.8168V79.2401C241.205 79.33 241.046 79.4105 240.824 79.4815C240.606 79.5526 240.353 79.6165 240.064 79.6733C239.78 79.7254 239.496 79.7704 239.212 79.8082C238.928 79.8461 238.672 79.8793 238.445 79.9077C237.829 79.9834 237.304 80.1018 236.868 80.2628C236.432 80.4238 236.098 80.6463 235.866 80.9304C235.634 81.2098 235.518 81.5696 235.518 82.0099C235.518 82.6728 235.755 83.1866 236.229 83.5511C236.702 83.911 237.296 84.0909 238.011 84.0909ZM253.256 76.4844L252.099 76.8111C251.985 76.4844 251.824 76.1884 251.616 75.9233C251.407 75.6581 251.135 75.4474 250.799 75.2912C250.468 75.1349 250.056 75.0568 249.563 75.0568C248.825 75.0568 248.219 75.232 247.745 75.5824C247.272 75.9328 247.035 76.3849 247.035 76.9389C247.035 77.4077 247.196 77.7888 247.518 78.0824C247.844 78.3712 248.346 78.6009 249.023 78.7713L250.671 79.1761C251.585 79.3987 252.269 79.7514 252.724 80.2344C253.183 80.7173 253.413 81.3234 253.413 82.0526C253.413 82.6681 253.242 83.215 252.901 83.6932C252.56 84.1714 252.085 84.5478 251.474 84.8224C250.868 85.0923 250.165 85.2273 249.364 85.2273C248.299 85.2273 247.421 84.9882 246.729 84.5099C246.038 84.027 245.595 83.331 245.401 82.4219L246.616 82.1236C246.772 82.7723 247.077 83.2623 247.532 83.5938C247.991 83.9252 248.595 84.0909 249.343 84.0909C250.181 84.0909 250.851 83.9039 251.353 83.5298C251.855 83.151 252.106 82.6776 252.106 82.1094C252.106 81.669 251.959 81.2997 251.665 81.0014C251.372 80.6984 250.927 80.4759 250.33 80.3338L248.548 79.9077C247.601 79.6804 246.9 79.3205 246.445 78.8281C245.991 78.3357 245.763 77.7249 245.763 76.9957C245.763 76.3944 245.927 75.8665 246.254 75.4119C246.58 74.9527 247.03 74.5928 247.603 74.3324C248.176 74.072 248.829 73.9418 249.563 73.9418C250.562 73.9418 251.36 74.169 251.957 74.6236C252.558 75.0734 252.991 75.6937 253.256 76.4844ZM260.62 70.4545V85H259.292V71.8466H259.206L255.797 74.1122V72.7344L259.235 70.4545H260.62ZM269.412 70.2557C270.018 70.2604 270.605 70.3835 271.174 70.625C271.747 70.8617 272.263 71.2453 272.722 71.7756C273.181 72.3011 273.546 73.0019 273.816 73.8778C274.086 74.7491 274.221 75.8215 274.221 77.0952C274.221 78.2836 274.116 79.3726 273.908 80.3622C273.7 81.3518 273.387 82.2088 272.971 82.9332C272.559 83.6529 272.038 84.2116 271.408 84.6094C270.783 85.0024 270.051 85.1989 269.213 85.1989C268.432 85.1989 267.739 85.0355 267.132 84.7088C266.531 84.3821 266.043 83.9299 265.669 83.3523C265.295 82.7699 265.063 82.0975 264.973 81.3352H266.28C266.408 82.1117 266.721 82.7509 267.218 83.2528C267.72 83.7547 268.385 84.0057 269.213 84.0057C270.402 84.0057 271.325 83.4517 271.983 82.3438C272.641 81.2358 272.971 79.6591 272.971 77.6136H272.878C272.651 78.0398 272.353 78.4115 271.983 78.7287C271.619 79.0459 271.202 79.2945 270.733 79.4744C270.265 79.6496 269.77 79.7372 269.249 79.7372C268.439 79.7372 267.698 79.5336 267.026 79.1264C266.354 78.7145 265.816 78.1534 265.414 77.4432C265.011 76.7282 264.81 75.9138 264.81 75C264.81 74.1383 264.999 73.3475 265.378 72.6278C265.762 71.9034 266.297 71.3258 266.983 70.8949C267.675 70.4593 268.484 70.2462 269.412 70.2557ZM269.412 71.4489C268.783 71.4489 268.217 71.6098 267.715 71.9318C267.218 72.2491 266.822 72.6776 266.529 73.2173C266.24 73.7524 266.096 74.3466 266.096 75C266.096 75.6581 266.24 76.2571 266.529 76.7969C266.822 77.3319 267.218 77.758 267.715 78.0753C268.217 78.3878 268.783 78.544 269.412 78.544C269.895 78.544 270.345 78.447 270.762 78.2528C271.178 78.054 271.538 77.7841 271.841 77.4432C272.149 77.1023 272.381 76.7164 272.537 76.2855C272.698 75.8499 272.762 75.393 272.729 74.9148C272.672 74.2519 272.495 73.66 272.196 73.1392C271.903 72.6136 271.515 72.2017 271.032 71.9034C270.553 71.6004 270.014 71.4489 269.412 71.4489ZM285.343 88.8423C283.989 88.8423 282.772 88.634 281.692 88.2173C280.613 87.8007 279.692 87.1993 278.929 86.4134C278.172 85.6321 277.589 84.6899 277.182 83.5866C276.78 82.4834 276.578 81.25 276.578 79.8864C276.578 78.5511 276.782 77.339 277.189 76.25C277.601 75.161 278.186 74.2259 278.944 73.4446C279.706 72.6634 280.615 72.062 281.671 71.6406C282.731 71.2145 283.91 71.0014 285.208 71.0014C286.477 71.0014 287.613 71.224 288.617 71.669C289.621 72.1094 290.475 72.7107 291.181 73.473C291.886 74.2353 292.424 75.1042 292.793 76.0795C293.167 77.0502 293.354 78.0658 293.354 79.1264C293.354 79.7988 293.302 80.4616 293.198 81.1151C293.098 81.7685 292.926 82.3603 292.679 82.8906C292.433 83.4209 292.092 83.8447 291.657 84.1619C291.221 84.4744 290.669 84.6307 290.002 84.6307C289.651 84.6307 289.306 84.5739 288.965 84.4602C288.629 84.3419 288.34 84.1501 288.098 83.8849C287.862 83.6151 287.724 83.2552 287.686 82.8054H287.615C287.464 83.1463 287.251 83.4588 286.976 83.7429C286.702 84.0223 286.363 84.2448 285.961 84.4105C285.563 84.5762 285.101 84.652 284.576 84.6378C283.979 84.6236 283.442 84.491 282.963 84.2401C282.49 83.9891 282.085 83.6458 281.749 83.2102C281.417 82.7746 281.164 82.2704 280.989 81.6974C280.814 81.1198 280.726 80.4972 280.726 79.8295C280.726 79.1856 280.823 78.5914 281.017 78.0469C281.216 77.5024 281.489 77.0265 281.834 76.6193C282.185 76.2121 282.594 75.8878 283.063 75.6463C283.532 75.4048 284.036 75.2652 284.576 75.2273C285.059 75.1941 285.504 75.2415 285.911 75.3693C286.318 75.4924 286.664 75.6723 286.948 75.9091C287.232 76.1458 287.435 76.4134 287.559 76.7116H287.63V75.4261H288.787V82.0099C288.787 82.5071 288.884 82.8954 289.078 83.1747C289.277 83.4493 289.59 83.5866 290.016 83.5866C290.532 83.5866 290.951 83.4186 291.273 83.0824C291.6 82.7415 291.839 82.2396 291.99 81.5767C292.142 80.9091 292.218 80.0876 292.218 79.1122C292.218 78.3736 292.114 77.6586 291.905 76.9673C291.702 76.2713 291.403 75.6274 291.01 75.0355C290.617 74.4389 290.134 73.9181 289.561 73.473C288.989 73.0232 288.333 72.6728 287.594 72.4219C286.86 72.1709 286.046 72.0455 285.151 72.0455C284.043 72.0455 283.037 72.2325 282.132 72.6065C281.228 72.9806 280.449 73.5156 279.796 74.2116C279.147 74.9077 278.648 75.7386 278.297 76.7045C277.947 77.6657 277.772 78.7382 277.772 79.9219C277.772 81.1198 277.947 82.2017 278.297 83.1676C278.648 84.1335 279.152 84.9598 279.81 85.6463C280.473 86.3329 281.273 86.8608 282.211 87.2301C283.148 87.5994 284.204 87.7841 285.378 87.7841C285.899 87.7841 286.41 87.732 286.912 87.6278C287.419 87.5284 287.878 87.4053 288.29 87.2585C288.707 87.1117 289.043 86.9673 289.299 86.8253L289.661 87.8196C289.31 88.009 288.894 88.1818 288.411 88.3381C287.933 88.4943 287.426 88.6174 286.891 88.7074C286.361 88.7973 285.845 88.8423 285.343 88.8423ZM284.725 83.5227C285.369 83.5227 285.911 83.3736 286.351 83.0753C286.792 82.777 287.123 82.3485 287.346 81.7898C287.573 81.2311 287.686 80.5587 287.686 79.7727C287.686 78.982 287.566 78.331 287.324 77.8196C287.087 77.3082 286.749 76.9295 286.309 76.6832C285.873 76.4323 285.357 76.3068 284.76 76.3068C284.183 76.3068 283.676 76.4654 283.24 76.7827C282.81 77.0952 282.471 77.5142 282.225 78.0398C281.983 78.5653 281.863 79.143 281.863 79.7727C281.863 80.4403 281.969 81.0582 282.182 81.6264C282.4 82.1946 282.72 82.6539 283.141 83.0043C283.567 83.3499 284.095 83.5227 284.725 83.5227ZM300.167 89.3182C299.424 89.3182 298.772 89.2211 298.214 89.027C297.655 88.8376 297.184 88.5772 296.8 88.2457C296.417 87.9143 296.119 87.5426 295.906 87.1307L296.942 86.4489C297.099 86.7235 297.307 86.9934 297.567 87.2585C297.833 87.5237 298.176 87.7438 298.597 87.919C299.023 88.0942 299.547 88.1818 300.167 88.1818C301.133 88.1818 301.912 87.9403 302.504 87.4574C303.1 86.9744 303.398 86.224 303.398 85.206V82.7486H303.285C303.138 83.08 302.927 83.4115 302.653 83.7429C302.378 84.0696 302.018 84.3419 301.573 84.5597C301.133 84.7775 300.586 84.8864 299.933 84.8864C299.061 84.8864 298.287 84.6709 297.61 84.2401C296.938 83.8092 296.407 83.1937 296.019 82.3935C295.636 81.5885 295.444 80.6297 295.444 79.517C295.444 78.4138 295.631 77.4432 296.005 76.6051C296.384 75.767 296.912 75.1136 297.589 74.6449C298.266 74.1761 299.054 73.9418 299.954 73.9418C300.621 73.9418 301.175 74.0601 301.616 74.2969C302.056 74.5289 302.409 74.8177 302.674 75.1634C302.944 75.509 303.155 75.8452 303.306 76.1719H303.434V74.0909H304.67V85.2841C304.67 86.2074 304.473 86.9673 304.08 87.5639C303.687 88.1605 303.152 88.6009 302.475 88.8849C301.798 89.1738 301.029 89.3182 300.167 89.3182ZM300.082 83.7287C300.782 83.7287 301.381 83.5606 301.879 83.2244C302.376 82.8835 302.757 82.3958 303.022 81.7614C303.287 81.1269 303.42 80.3717 303.42 79.4957C303.42 78.6435 303.29 77.8883 303.029 77.2301C302.769 76.5672 302.39 76.0464 301.893 75.6676C301.4 75.2841 300.797 75.0923 300.082 75.0923C299.353 75.0923 298.737 75.2888 298.235 75.6818C297.733 76.0748 297.354 76.6051 297.099 77.2727C296.843 77.9356 296.715 78.6766 296.715 79.4957C296.715 80.3291 296.845 81.0653 297.106 81.7045C297.366 82.339 297.747 82.8362 298.249 83.196C298.751 83.5511 299.362 83.7287 300.082 83.7287ZM308.017 85V74.0909H309.245V75.767H309.359C309.577 75.2036 309.939 74.7609 310.446 74.4389C310.957 74.1122 311.57 73.9489 312.285 73.9489C313.038 73.9489 313.656 74.1264 314.139 74.4815C314.627 74.8319 314.991 75.3149 315.233 75.9304H315.325C315.571 75.3243 315.971 74.8437 316.525 74.4886C317.084 74.1288 317.761 73.9489 318.556 73.9489C319.57 73.9489 320.37 74.2685 320.957 74.9077C321.544 75.5421 321.838 76.4702 321.838 77.6918V85H320.574V77.6918C320.574 76.83 320.353 76.1837 319.913 75.7528C319.473 75.322 318.893 75.1065 318.173 75.1065C317.34 75.1065 316.698 75.3622 316.248 75.8736C315.798 76.3849 315.574 77.0336 315.574 77.8196V85H314.281V77.5781C314.281 76.8395 314.075 76.2429 313.663 75.7884C313.251 75.3338 312.671 75.1065 311.923 75.1065C311.421 75.1065 310.969 75.2296 310.566 75.4759C310.169 75.7221 309.854 76.0653 309.622 76.5057C309.395 76.9413 309.281 77.4432 309.281 78.0114V85H308.017ZM328.232 85.2486C327.573 85.2486 326.972 85.1207 326.428 84.8651C325.883 84.6046 325.45 84.2306 325.128 83.7429C324.806 83.2505 324.645 82.6539 324.645 81.9531C324.645 81.4134 324.747 80.9588 324.95 80.5895C325.154 80.2202 325.443 79.9171 325.817 79.6804C326.191 79.4437 326.634 79.2566 327.145 79.1193C327.656 78.982 328.22 78.8755 328.835 78.7997C329.446 78.724 329.962 78.6577 330.384 78.6009C330.81 78.544 331.134 78.4541 331.357 78.331C331.579 78.2079 331.69 78.009 331.69 77.7344V77.4787C331.69 76.7353 331.468 76.1506 331.023 75.7244C330.582 75.2936 329.948 75.0781 329.119 75.0781C328.333 75.0781 327.692 75.2509 327.195 75.5966C326.702 75.9422 326.357 76.3494 326.158 76.8182L324.957 76.3849C325.204 75.7884 325.545 75.3125 325.98 74.9574C326.416 74.5975 326.903 74.3395 327.443 74.1832C327.983 74.0223 328.53 73.9418 329.084 73.9418C329.5 73.9418 329.934 73.9962 330.384 74.1051C330.838 74.214 331.259 74.4034 331.648 74.6733C332.036 74.9384 332.351 75.3101 332.592 75.7884C332.834 76.2618 332.955 76.8632 332.955 77.5923V85H331.69V83.2741H331.612C331.461 83.5961 331.236 83.9086 330.938 84.2116C330.639 84.5147 330.265 84.7633 329.815 84.9574C329.366 85.1515 328.838 85.2486 328.232 85.2486ZM328.402 84.0909C329.074 84.0909 329.657 83.9418 330.149 83.6435C330.642 83.3452 331.02 82.9498 331.286 82.4574C331.555 81.9602 331.69 81.4134 331.69 80.8168V79.2401C331.596 79.33 331.437 79.4105 331.214 79.4815C330.997 79.5526 330.743 79.6165 330.455 79.6733C330.17 79.7254 329.886 79.7704 329.602 79.8082C329.318 79.8461 329.062 79.8793 328.835 79.9077C328.22 79.9834 327.694 80.1018 327.259 80.2628C326.823 80.4238 326.489 80.6463 326.257 80.9304C326.025 81.2098 325.909 81.5696 325.909 82.0099C325.909 82.6728 326.146 83.1866 326.619 83.5511C327.093 83.911 327.687 84.0909 328.402 84.0909ZM336.332 85V74.0909H337.603V85H336.332ZM336.978 72.2159C336.718 72.2159 336.495 72.1283 336.31 71.9531C336.126 71.7732 336.033 71.5578 336.033 71.3068C336.033 71.0559 336.126 70.8428 336.31 70.6676C336.495 70.4877 336.718 70.3977 336.978 70.3977C337.238 70.3977 337.461 70.4877 337.646 70.6676C337.83 70.8428 337.923 71.0559 337.923 71.3068C337.923 71.5578 337.83 71.7732 337.646 71.9531C337.461 72.1283 337.238 72.2159 336.978 72.2159ZM342.211 70.4545V85H340.946V70.4545H342.211ZM346.564 85.1065C346.285 85.1065 346.043 85.0071 345.84 84.8082C345.641 84.6046 345.542 84.3632 345.542 84.0838C345.542 83.7997 345.641 83.5582 345.84 83.3594C346.043 83.1605 346.285 83.0611 346.564 83.0611C346.848 83.0611 347.09 83.1605 347.289 83.3594C347.488 83.5582 347.587 83.7997 347.587 84.0838C347.587 84.2685 347.54 84.4389 347.445 84.5952C347.355 84.7514 347.232 84.8769 347.076 84.9716C346.924 85.0616 346.754 85.1065 346.564 85.1065ZM355.188 85.2273C354.213 85.2273 353.363 84.9834 352.638 84.4957C351.919 84.008 351.36 83.3404 350.962 82.4929C350.565 81.6454 350.366 80.6795 350.366 79.5952C350.366 78.5014 350.567 77.5284 350.969 76.6761C351.377 75.8239 351.94 75.1562 352.66 74.6733C353.379 74.1856 354.215 73.9418 355.167 73.9418C355.896 73.9418 356.557 74.0838 357.148 74.3679C357.74 74.6473 358.228 75.0426 358.612 75.554C359 76.0606 359.244 76.6525 359.343 77.3295H358.065C357.932 76.714 357.612 76.1884 357.106 75.7528C356.604 75.3125 355.965 75.0923 355.188 75.0923C354.492 75.0923 353.877 75.2817 353.342 75.6605C352.807 76.0346 352.388 76.5578 352.085 77.2301C351.786 77.8977 351.637 78.6719 351.637 79.5526C351.637 80.438 351.784 81.2216 352.077 81.9034C352.371 82.5805 352.783 83.1108 353.313 83.4943C353.848 83.8778 354.473 84.0696 355.188 84.0696C355.671 84.0696 356.112 83.9796 356.509 83.7997C356.912 83.6151 357.248 83.3546 357.518 83.0185C357.792 82.6823 357.977 82.2822 358.072 81.8182H359.35C359.255 82.4763 359.021 83.0634 358.647 83.5795C358.278 84.0909 357.797 84.4934 357.205 84.7869C356.618 85.0805 355.946 85.2273 355.188 85.2273ZM366.3 85.2273C365.357 85.2273 364.524 84.9882 363.8 84.5099C363.08 84.0317 362.517 83.3712 362.109 82.5284C361.702 81.6809 361.499 80.7031 361.499 79.5952C361.499 78.4777 361.702 77.4953 362.109 76.6477C362.517 75.7955 363.08 75.1326 363.8 74.6591C364.524 74.1809 365.357 73.9418 366.3 73.9418C367.242 73.9418 368.073 74.1809 368.793 74.6591C369.512 75.1373 370.076 75.8002 370.483 76.6477C370.895 77.4953 371.101 78.4777 371.101 79.5952C371.101 80.7031 370.897 81.6809 370.49 82.5284C370.083 83.3712 369.517 84.0317 368.793 84.5099C368.073 84.9882 367.242 85.2273 366.3 85.2273ZM366.3 84.0696C367.057 84.0696 367.699 83.866 368.224 83.4588C368.75 83.0516 369.148 82.5095 369.418 81.8324C369.692 81.1553 369.83 80.4096 369.83 79.5952C369.83 78.7808 369.692 78.0327 369.418 77.3509C369.148 76.669 368.75 76.1222 368.224 75.7102C367.699 75.2983 367.057 75.0923 366.3 75.0923C365.547 75.0923 364.905 75.2983 364.375 75.7102C363.849 76.1222 363.449 76.669 363.175 77.3509C362.905 78.0327 362.77 78.7808 362.77 79.5952C362.77 80.4096 362.905 81.1553 363.175 81.8324C363.449 82.5095 363.849 83.0516 364.375 83.4588C364.901 83.866 365.542 84.0696 366.3 84.0696ZM373.876 85V74.0909H375.105V75.767H375.218C375.436 75.2036 375.798 74.7609 376.305 74.4389C376.816 74.1122 377.43 73.9489 378.145 73.9489C378.897 73.9489 379.515 74.1264 379.998 74.4815C380.486 74.8319 380.85 75.3149 381.092 75.9304H381.184C381.431 75.3243 381.831 74.8437 382.385 74.4886C382.943 74.1288 383.62 73.9489 384.416 73.9489C385.429 73.9489 386.229 74.2685 386.816 74.9077C387.404 75.5421 387.697 76.4702 387.697 77.6918V85H386.433V77.6918C386.433 76.83 386.213 76.1837 385.772 75.7528C385.332 75.322 384.752 75.1065 384.032 75.1065C383.199 75.1065 382.557 75.3622 382.108 75.8736C381.658 76.3849 381.433 77.0336 381.433 77.8196V85H380.14V77.5781C380.14 76.8395 379.934 76.2429 379.522 75.7884C379.11 75.3338 378.53 75.1065 377.782 75.1065C377.28 75.1065 376.828 75.2296 376.426 75.4759C376.028 75.7221 375.713 76.0653 375.481 76.5057C375.254 76.9413 375.14 77.4432 375.14 78.0114V85H373.876ZM398.5 83.0114L398.422 83.7926C398.36 84.4176 398.242 85.0402 398.066 85.6605C397.896 86.2855 397.716 86.8513 397.527 87.358C397.342 87.8646 397.193 88.2623 397.079 88.5511H395.119C395.19 88.2718 395.287 87.8812 395.41 87.3793C395.533 86.8821 395.649 86.3234 395.758 85.7031C395.867 85.0829 395.936 84.4508 395.964 83.8068L396 83.0114H398.5ZM36.2642 113V98.4545H39.3395V110.464H45.5753V113H36.2642ZM47.555 113V102.091H50.5806V113H47.555ZM49.0749 100.685C48.6251 100.685 48.2392 100.536 47.9173 100.237C47.6 99.9342 47.4414 99.572 47.4414 99.1506C47.4414 98.7339 47.6 98.3764 47.9173 98.0781C48.2392 97.7751 48.6251 97.6236 49.0749 97.6236C49.5247 97.6236 49.9083 97.7751 50.2255 98.0781C50.5475 98.3764 50.7085 98.7339 50.7085 99.1506C50.7085 99.572 50.5475 99.9342 50.2255 100.237C49.9083 100.536 49.5247 100.685 49.0749 100.685ZM56.0298 106.693V113H53.0043V102.091H55.8878V104.016H56.0156C56.2571 103.381 56.6619 102.879 57.2301 102.51C57.7983 102.136 58.4872 101.949 59.2969 101.949C60.0545 101.949 60.715 102.115 61.2784 102.446C61.8419 102.777 62.2798 103.251 62.5923 103.866C62.9048 104.477 63.0611 105.206 63.0611 106.054V113H60.0355V106.594C60.0402 105.926 59.8698 105.405 59.5241 105.031C59.1785 104.652 58.7027 104.463 58.0966 104.463C57.6894 104.463 57.3295 104.551 57.017 104.726C56.7093 104.901 56.4678 105.157 56.2926 105.493C56.1222 105.824 56.0346 106.224 56.0298 106.693ZM68.1871 109.861L68.1942 106.232H68.6346L72.1289 102.091H75.6019L70.9073 107.574H70.19L68.1871 109.861ZM65.4457 113V98.4545H68.4712V113H65.4457ZM72.2638 113L69.0536 108.249L71.0707 106.111L75.8079 113H72.2638ZM81.6087 113.213C80.4865 113.213 79.5206 112.986 78.7109 112.531C77.906 112.072 77.2857 111.423 76.8501 110.585C76.4145 109.742 76.1967 108.746 76.1967 107.595C76.1967 106.473 76.4145 105.488 76.8501 104.641C77.2857 103.793 77.8989 103.133 78.6896 102.659C79.4851 102.186 80.4179 101.949 81.4879 101.949C82.2076 101.949 82.8776 102.065 83.4979 102.297C84.1229 102.524 84.6674 102.867 85.1314 103.327C85.6001 103.786 85.9647 104.364 86.2251 105.06C86.4856 105.751 86.6158 106.561 86.6158 107.489V108.32H77.4041V106.445H83.7678C83.7678 106.009 83.6731 105.623 83.4837 105.287C83.2943 104.951 83.0315 104.688 82.6953 104.499C82.3639 104.304 81.978 104.207 81.5376 104.207C81.0784 104.207 80.6712 104.314 80.3161 104.527C79.9657 104.735 79.6911 105.017 79.4922 105.372C79.2933 105.723 79.1915 106.113 79.1868 106.544V108.327C79.1868 108.866 79.2862 109.333 79.4851 109.726C79.6887 110.119 79.9751 110.422 80.3445 110.635C80.7138 110.848 81.1518 110.955 81.6584 110.955C81.9946 110.955 82.3023 110.907 82.5817 110.812C82.861 110.718 83.1001 110.576 83.299 110.386C83.4979 110.197 83.6494 109.965 83.7536 109.69L86.5518 109.875C86.4098 110.547 86.1186 111.134 85.6783 111.636C85.2427 112.134 84.6792 112.522 83.9879 112.801C83.3014 113.076 82.5083 113.213 81.6087 113.213ZM92.6101 113.178C91.7815 113.178 91.031 112.964 90.3587 112.538C89.6911 112.107 89.1607 111.475 88.7678 110.642C88.3795 109.804 88.1854 108.777 88.1854 107.56C88.1854 106.31 88.3866 105.27 88.7891 104.442C89.1915 103.608 89.7266 102.986 90.3942 102.574C91.0665 102.157 91.8028 101.949 92.603 101.949C93.2138 101.949 93.7228 102.053 94.13 102.261C94.5419 102.465 94.8733 102.721 95.1243 103.028C95.38 103.331 95.5741 103.63 95.7067 103.923H95.799V98.4545H98.8175V113H95.8345V111.253H95.7067C95.5646 111.556 95.3634 111.857 95.103 112.155C94.8473 112.448 94.5135 112.692 94.1016 112.886C93.6944 113.08 93.1972 113.178 92.6101 113.178ZM93.5689 110.77C94.0566 110.77 94.4685 110.637 94.8047 110.372C95.1456 110.102 95.406 109.726 95.5859 109.243C95.7706 108.76 95.8629 108.194 95.8629 107.545C95.8629 106.897 95.773 106.333 95.593 105.855C95.4131 105.377 95.1527 105.008 94.8118 104.747C94.4709 104.487 94.0566 104.357 93.5689 104.357C93.0717 104.357 92.6527 104.491 92.3118 104.761C91.9709 105.031 91.7128 105.405 91.5376 105.884C91.3625 106.362 91.2749 106.916 91.2749 107.545C91.2749 108.18 91.3625 108.741 91.5376 109.229C91.7176 109.712 91.9756 110.09 92.3118 110.365C92.6527 110.635 93.0717 110.77 93.5689 110.77ZM104.437 98.4545V113H101.362V98.4545H104.437ZM109.936 106.693V113H106.911V102.091H109.794V104.016H109.922C110.163 103.381 110.568 102.879 111.136 102.51C111.705 102.136 112.393 101.949 113.203 101.949C113.961 101.949 114.621 102.115 115.185 102.446C115.748 102.777 116.186 103.251 116.499 103.866C116.811 104.477 116.967 105.206 116.967 106.054V113H113.942V106.594C113.946 105.926 113.776 105.405 113.43 105.031C113.085 104.652 112.609 104.463 112.003 104.463C111.596 104.463 111.236 104.551 110.923 104.726C110.616 104.901 110.374 105.157 110.199 105.493C110.028 105.824 109.941 106.224 109.936 106.693ZM125.749 113.185C125.281 113.185 124.878 113.019 124.542 112.688C124.21 112.351 124.045 111.949 124.045 111.48C124.045 111.016 124.21 110.618 124.542 110.287C124.878 109.955 125.281 109.79 125.749 109.79C126.204 109.79 126.602 109.955 126.942 110.287C127.283 110.618 127.454 111.016 127.454 111.48C127.454 111.793 127.373 112.079 127.212 112.339C127.056 112.595 126.85 112.801 126.594 112.957C126.339 113.109 126.057 113.185 125.749 113.185ZM125.749 105.543C125.281 105.543 124.878 105.377 124.542 105.045C124.21 104.714 124.045 104.312 124.045 103.838C124.045 103.374 124.21 102.979 124.542 102.652C124.878 102.321 125.281 102.155 125.749 102.155C126.204 102.155 126.602 102.321 126.942 102.652C127.283 102.979 127.454 103.374 127.454 103.838C127.454 104.155 127.373 104.444 127.212 104.705C127.056 104.96 126.85 105.164 126.594 105.315C126.339 105.467 126.057 105.543 125.749 105.543ZM149.009 97.7727L144.322 115.188H143.136L147.823 97.7727H149.009ZM151.214 113V102.091H152.486V113H151.214ZM151.861 100.216C151.6 100.216 151.378 100.128 151.193 99.9531C151.009 99.7732 150.916 99.5578 150.916 99.3068C150.916 99.0559 151.009 98.8428 151.193 98.6676C151.378 98.4877 151.6 98.3977 151.861 98.3977C152.121 98.3977 152.344 98.4877 152.528 98.6676C152.713 98.8428 152.805 99.0559 152.805 99.3068C152.805 99.5578 152.713 99.7732 152.528 99.9531C152.344 100.128 152.121 100.216 151.861 100.216ZM157.093 106.182V113H155.829V102.091H157.058V103.803H157.172C157.427 103.244 157.825 102.796 158.365 102.46C158.909 102.119 159.582 101.949 160.382 101.949C161.116 101.949 161.76 102.103 162.314 102.411C162.872 102.714 163.306 103.161 163.613 103.753C163.926 104.345 164.082 105.071 164.082 105.933V113H162.818V106.011C162.818 105.116 162.567 104.409 162.065 103.888C161.568 103.367 160.9 103.107 160.062 103.107C159.489 103.107 158.98 103.23 158.535 103.476C158.09 103.722 157.737 104.077 157.477 104.541C157.221 105 157.093 105.547 157.093 106.182ZM172.134 97.7727L167.447 115.188H166.261L170.948 97.7727H172.134ZM174.325 113V102.091H175.554V103.767H175.646C175.864 103.218 176.243 102.775 176.783 102.439C177.327 102.098 177.943 101.928 178.629 101.928C178.733 101.928 178.849 101.93 178.977 101.935C179.105 101.939 179.212 101.944 179.297 101.949V103.234C179.24 103.225 179.141 103.211 178.999 103.192C178.857 103.173 178.703 103.163 178.537 103.163C177.969 103.163 177.462 103.284 177.017 103.526C176.577 103.762 176.229 104.091 175.973 104.513C175.717 104.934 175.589 105.415 175.589 105.955V113H174.325ZM184.501 113.249C183.843 113.249 183.242 113.121 182.697 112.865C182.153 112.605 181.719 112.231 181.397 111.743C181.075 111.25 180.914 110.654 180.914 109.953C180.914 109.413 181.016 108.959 181.22 108.589C181.423 108.22 181.712 107.917 182.086 107.68C182.46 107.444 182.903 107.257 183.414 107.119C183.926 106.982 184.489 106.875 185.105 106.8C185.716 106.724 186.232 106.658 186.653 106.601C187.079 106.544 187.404 106.454 187.626 106.331C187.849 106.208 187.96 106.009 187.96 105.734V105.479C187.96 104.735 187.737 104.151 187.292 103.724C186.852 103.294 186.217 103.078 185.389 103.078C184.603 103.078 183.961 103.251 183.464 103.597C182.972 103.942 182.626 104.349 182.427 104.818L181.227 104.385C181.473 103.788 181.814 103.312 182.25 102.957C182.685 102.598 183.173 102.339 183.713 102.183C184.252 102.022 184.799 101.942 185.353 101.942C185.77 101.942 186.203 101.996 186.653 102.105C187.108 102.214 187.529 102.403 187.917 102.673C188.306 102.938 188.62 103.31 188.862 103.788C189.103 104.262 189.224 104.863 189.224 105.592V113H187.96V111.274H187.882C187.73 111.596 187.505 111.909 187.207 112.212C186.909 112.515 186.535 112.763 186.085 112.957C185.635 113.152 185.107 113.249 184.501 113.249ZM184.672 112.091C185.344 112.091 185.926 111.942 186.419 111.643C186.911 111.345 187.29 110.95 187.555 110.457C187.825 109.96 187.96 109.413 187.96 108.817V107.24C187.865 107.33 187.707 107.411 187.484 107.482C187.266 107.553 187.013 107.616 186.724 107.673C186.44 107.725 186.156 107.77 185.872 107.808C185.588 107.846 185.332 107.879 185.105 107.908C184.489 107.983 183.964 108.102 183.528 108.263C183.092 108.424 182.759 108.646 182.527 108.93C182.295 109.21 182.179 109.57 182.179 110.01C182.179 110.673 182.415 111.187 182.889 111.551C183.362 111.911 183.957 112.091 184.672 112.091ZM199.917 104.484L198.759 104.811C198.645 104.484 198.484 104.188 198.276 103.923C198.068 103.658 197.795 103.447 197.459 103.291C197.128 103.135 196.716 103.057 196.223 103.057C195.485 103.057 194.879 103.232 194.405 103.582C193.932 103.933 193.695 104.385 193.695 104.939C193.695 105.408 193.856 105.789 194.178 106.082C194.505 106.371 195.007 106.601 195.684 106.771L197.331 107.176C198.245 107.399 198.929 107.751 199.384 108.234C199.843 108.717 200.073 109.323 200.073 110.053C200.073 110.668 199.902 111.215 199.561 111.693C199.221 112.171 198.745 112.548 198.134 112.822C197.528 113.092 196.825 113.227 196.025 113.227C194.959 113.227 194.081 112.988 193.39 112.51C192.698 112.027 192.256 111.331 192.061 110.422L193.276 110.124C193.432 110.772 193.738 111.262 194.192 111.594C194.651 111.925 195.255 112.091 196.003 112.091C196.841 112.091 197.511 111.904 198.013 111.53C198.515 111.151 198.766 110.678 198.766 110.109C198.766 109.669 198.619 109.3 198.326 109.001C198.032 108.698 197.587 108.476 196.99 108.334L195.208 107.908C194.261 107.68 193.56 107.321 193.105 106.828C192.651 106.336 192.424 105.725 192.424 104.996C192.424 104.394 192.587 103.866 192.914 103.412C193.24 102.953 193.69 102.593 194.263 102.332C194.836 102.072 195.489 101.942 196.223 101.942C197.222 101.942 198.02 102.169 198.617 102.624C199.218 103.073 199.651 103.694 199.917 104.484ZM205.888 113.249C205.23 113.249 204.628 113.121 204.084 112.865C203.539 112.605 203.106 112.231 202.784 111.743C202.462 111.25 202.301 110.654 202.301 109.953C202.301 109.413 202.403 108.959 202.607 108.589C202.81 108.22 203.099 107.917 203.473 107.68C203.847 107.444 204.29 107.257 204.801 107.119C205.313 106.982 205.876 106.875 206.491 106.8C207.102 106.724 207.618 106.658 208.04 106.601C208.466 106.544 208.79 106.454 209.013 106.331C209.235 106.208 209.347 106.009 209.347 105.734V105.479C209.347 104.735 209.124 104.151 208.679 103.724C208.239 103.294 207.604 103.078 206.776 103.078C205.99 103.078 205.348 103.251 204.851 103.597C204.358 103.942 204.013 104.349 203.814 104.818L202.614 104.385C202.86 103.788 203.201 103.312 203.636 102.957C204.072 102.598 204.56 102.339 205.099 102.183C205.639 102.022 206.186 101.942 206.74 101.942C207.157 101.942 207.59 101.996 208.04 102.105C208.494 102.214 208.916 102.403 209.304 102.673C209.692 102.938 210.007 103.31 210.249 103.788C210.49 104.262 210.611 104.863 210.611 105.592V113H209.347V111.274H209.268C209.117 111.596 208.892 111.909 208.594 112.212C208.295 112.515 207.921 112.763 207.472 112.957C207.022 113.152 206.494 113.249 205.888 113.249ZM206.058 112.091C206.731 112.091 207.313 111.942 207.805 111.643C208.298 111.345 208.677 110.95 208.942 110.457C209.212 109.96 209.347 109.413 209.347 108.817V107.24C209.252 107.33 209.093 107.411 208.871 107.482C208.653 107.553 208.4 107.616 208.111 107.673C207.827 107.725 207.543 107.77 207.259 107.808C206.974 107.846 206.719 107.879 206.491 107.908C205.876 107.983 205.35 108.102 204.915 108.263C204.479 108.424 204.145 108.646 203.913 108.93C203.681 109.21 203.565 109.57 203.565 110.01C203.565 110.673 203.802 111.187 204.276 111.551C204.749 111.911 205.343 112.091 206.058 112.091ZM218.136 117.318C217.392 117.318 216.741 117.221 216.183 117.027C215.624 116.838 215.153 116.577 214.769 116.246C214.386 115.914 214.087 115.543 213.874 115.131L214.911 114.449C215.067 114.723 215.276 114.993 215.536 115.259C215.801 115.524 216.145 115.744 216.566 115.919C216.992 116.094 217.515 116.182 218.136 116.182C219.102 116.182 219.88 115.94 220.472 115.457C221.069 114.974 221.367 114.224 221.367 113.206V110.749H221.254C221.107 111.08 220.896 111.411 220.621 111.743C220.347 112.07 219.987 112.342 219.542 112.56C219.102 112.777 218.555 112.886 217.901 112.886C217.03 112.886 216.256 112.671 215.579 112.24C214.906 111.809 214.376 111.194 213.988 110.393C213.604 109.589 213.413 108.63 213.413 107.517C213.413 106.414 213.6 105.443 213.974 104.605C214.353 103.767 214.88 103.114 215.558 102.645C216.235 102.176 217.023 101.942 217.923 101.942C218.59 101.942 219.144 102.06 219.585 102.297C220.025 102.529 220.378 102.818 220.643 103.163C220.913 103.509 221.123 103.845 221.275 104.172H221.403V102.091H222.638V113.284C222.638 114.207 222.442 114.967 222.049 115.564C221.656 116.161 221.121 116.601 220.444 116.885C219.767 117.174 218.997 117.318 218.136 117.318ZM218.05 111.729C218.751 111.729 219.35 111.561 219.847 111.224C220.344 110.884 220.726 110.396 220.991 109.761C221.256 109.127 221.388 108.372 221.388 107.496C221.388 106.643 221.258 105.888 220.998 105.23C220.737 104.567 220.359 104.046 219.862 103.668C219.369 103.284 218.765 103.092 218.05 103.092C217.321 103.092 216.706 103.289 216.204 103.682C215.702 104.075 215.323 104.605 215.067 105.273C214.812 105.936 214.684 106.677 214.684 107.496C214.684 108.329 214.814 109.065 215.075 109.705C215.335 110.339 215.716 110.836 216.218 111.196C216.72 111.551 217.331 111.729 218.05 111.729ZM232.917 108.831V102.091H234.181V113H232.917V111.189H232.818C232.562 111.748 232.157 112.214 231.603 112.588C231.049 112.957 230.372 113.142 229.572 113.142C228.876 113.142 228.258 112.991 227.718 112.688C227.179 112.38 226.755 111.93 226.447 111.338C226.139 110.746 225.985 110.019 225.985 109.158V102.091H227.25V109.08C227.25 109.932 227.501 110.618 228.002 111.139C228.504 111.655 229.148 111.913 229.934 111.913C230.427 111.913 230.9 111.795 231.355 111.558C231.809 111.321 232.183 110.976 232.477 110.521C232.77 110.062 232.917 109.499 232.917 108.831ZM244.858 104.484L243.7 104.811C243.587 104.484 243.426 104.188 243.217 103.923C243.009 103.658 242.737 103.447 242.401 103.291C242.069 103.135 241.657 103.057 241.165 103.057C240.426 103.057 239.82 103.232 239.347 103.582C238.873 103.933 238.636 104.385 238.636 104.939C238.636 105.408 238.797 105.789 239.119 106.082C239.446 106.371 239.948 106.601 240.625 106.771L242.273 107.176C243.187 107.399 243.871 107.751 244.325 108.234C244.785 108.717 245.014 109.323 245.014 110.053C245.014 110.668 244.844 111.215 244.503 111.693C244.162 112.171 243.686 112.548 243.075 112.822C242.469 113.092 241.766 113.227 240.966 113.227C239.901 113.227 239.022 112.988 238.331 112.51C237.64 112.027 237.197 111.331 237.003 110.422L238.217 110.124C238.374 110.772 238.679 111.262 239.134 111.594C239.593 111.925 240.196 112.091 240.945 112.091C241.783 112.091 242.453 111.904 242.955 111.53C243.456 111.151 243.707 110.678 243.707 110.109C243.707 109.669 243.561 109.3 243.267 109.001C242.973 108.698 242.528 108.476 241.932 108.334L240.149 107.908C239.202 107.68 238.501 107.321 238.047 106.828C237.592 106.336 237.365 105.725 237.365 104.996C237.365 104.394 237.528 103.866 237.855 103.412C238.182 102.953 238.632 102.593 239.205 102.332C239.777 102.072 240.431 101.942 241.165 101.942C242.164 101.942 242.962 102.169 243.558 102.624C244.16 103.073 244.593 103.694 244.858 104.484ZM252.079 102.091V103.192H246.873V102.091H252.079ZM248.5 99.4773H249.771V110.152C249.771 110.607 249.849 110.964 250.005 111.224C250.162 111.48 250.365 111.662 250.616 111.771C250.867 111.875 251.135 111.928 251.419 111.928C251.584 111.928 251.726 111.918 251.845 111.899C251.963 111.875 252.067 111.852 252.157 111.828L252.427 112.972C252.304 113.019 252.153 113.062 251.973 113.099C251.793 113.142 251.57 113.163 251.305 113.163C250.841 113.163 250.394 113.062 249.963 112.858C249.537 112.654 249.186 112.351 248.912 111.949C248.637 111.546 248.5 111.047 248.5 110.45V99.4773ZM254.964 113V102.091H256.236V113H254.964ZM255.611 100.216C255.35 100.216 255.128 100.128 254.943 99.9531C254.759 99.7732 254.666 99.5578 254.666 99.3068C254.666 99.0559 254.759 98.8428 254.943 98.6676C255.128 98.4877 255.35 98.3977 255.611 98.3977C255.871 98.3977 256.094 98.4877 256.278 98.6676C256.463 98.8428 256.555 99.0559 256.555 99.3068C256.555 99.5578 256.463 99.7732 256.278 99.9531C256.094 100.128 255.871 100.216 255.611 100.216ZM260.843 106.182V113H259.579V102.091H260.808V103.803H260.922C261.177 103.244 261.575 102.796 262.115 102.46C262.659 102.119 263.332 101.949 264.132 101.949C264.866 101.949 265.51 102.103 266.064 102.411C266.622 102.714 267.056 103.161 267.363 103.753C267.676 104.345 267.832 105.071 267.832 105.933V113H266.568V106.011C266.568 105.116 266.317 104.409 265.815 103.888C265.318 103.367 264.65 103.107 263.812 103.107C263.239 103.107 262.73 103.23 262.285 103.476C261.84 103.722 261.487 104.077 261.227 104.541C260.971 105 260.843 105.547 260.843 106.182ZM275.884 97.7727L271.197 115.188H270.011L274.698 97.7727H275.884ZM285.531 111.011L285.453 111.793C285.391 112.418 285.273 113.04 285.098 113.661C284.927 114.286 284.747 114.851 284.558 115.358C284.373 115.865 284.224 116.262 284.11 116.551H282.15C282.221 116.272 282.318 115.881 282.441 115.379C282.565 114.882 282.681 114.323 282.789 113.703C282.898 113.083 282.967 112.451 282.995 111.807L283.031 111.011H285.531Z" fill="white"/>
<path d="M161.932 175V160.455H166.626C167.659 160.455 168.52 160.642 169.212 161.016C169.908 161.385 170.431 161.899 170.781 162.557C171.136 163.21 171.314 163.961 171.314 164.808C171.314 165.656 171.136 166.404 170.781 167.053C170.431 167.701 169.91 168.208 169.219 168.572C168.527 168.937 167.67 169.119 166.648 169.119H162.649V167.905H166.612C167.37 167.905 168 167.779 168.501 167.528C169.008 167.277 169.384 166.92 169.631 166.456C169.882 165.992 170.007 165.443 170.007 164.808C170.007 164.174 169.882 163.62 169.631 163.146C169.38 162.668 169.001 162.299 168.494 162.038C167.992 161.778 167.358 161.648 166.591 161.648H163.26V175H161.932ZM168.345 168.438L171.925 175H170.391L166.847 168.438H168.345ZM178.58 175.227C177.562 175.227 176.681 174.991 175.938 174.517C175.194 174.039 174.619 173.378 174.212 172.536C173.809 171.688 173.608 170.713 173.608 169.609C173.608 168.511 173.809 167.536 174.212 166.683C174.619 165.826 175.18 165.156 175.895 164.673C176.615 164.186 177.446 163.942 178.388 163.942C178.98 163.942 179.55 164.051 180.099 164.268C180.649 164.482 181.141 164.811 181.577 165.256C182.017 165.696 182.365 166.252 182.621 166.925C182.876 167.592 183.004 168.383 183.004 169.297V169.922H174.482V168.807H181.712C181.712 168.106 181.57 167.476 181.286 166.918C181.006 166.354 180.616 165.909 180.114 165.582C179.616 165.256 179.041 165.092 178.388 165.092C177.696 165.092 177.088 165.277 176.562 165.646C176.037 166.016 175.625 166.503 175.327 167.109C175.033 167.715 174.884 168.378 174.879 169.098V169.766C174.879 170.632 175.028 171.39 175.327 172.038C175.63 172.682 176.058 173.182 176.612 173.537C177.166 173.892 177.822 174.07 178.58 174.07C179.096 174.07 179.548 173.989 179.936 173.828C180.329 173.667 180.658 173.452 180.923 173.182C181.193 172.907 181.397 172.607 181.534 172.28L182.734 172.67C182.569 173.13 182.296 173.554 181.918 173.942C181.544 174.33 181.075 174.643 180.511 174.879C179.953 175.111 179.309 175.227 178.58 175.227ZM189.718 175.227C188.823 175.227 188.039 174.991 187.367 174.517C186.694 174.044 186.169 173.383 185.79 172.536C185.416 171.688 185.229 170.701 185.229 169.574C185.229 168.452 185.416 167.469 185.79 166.626C186.169 165.779 186.697 165.121 187.374 164.652C188.051 164.179 188.839 163.942 189.739 163.942C190.402 163.942 190.953 164.06 191.394 164.297C191.834 164.529 192.187 164.818 192.452 165.163C192.717 165.509 192.923 165.845 193.07 166.172H193.184V160.455H194.455V175H193.219V172.976H193.07C192.923 173.307 192.715 173.648 192.445 173.999C192.175 174.344 191.818 174.635 191.373 174.872C190.932 175.109 190.381 175.227 189.718 175.227ZM189.867 174.07C190.572 174.07 191.174 173.878 191.671 173.494C192.168 173.106 192.547 172.573 192.807 171.896C193.072 171.214 193.205 170.433 193.205 169.553C193.205 168.681 193.075 167.912 192.814 167.244C192.554 166.572 192.175 166.046 191.678 165.668C191.181 165.284 190.577 165.092 189.867 165.092C189.138 165.092 188.522 165.291 188.02 165.689C187.523 166.082 187.144 166.615 186.884 167.287C186.628 167.959 186.5 168.714 186.5 169.553C186.5 170.4 186.631 171.165 186.891 171.847C187.151 172.528 187.53 173.071 188.027 173.473C188.529 173.871 189.142 174.07 189.867 174.07ZM202.466 175.227C201.448 175.227 200.568 174.991 199.824 174.517C199.081 174.039 198.506 173.378 198.098 172.536C197.696 171.688 197.495 170.713 197.495 169.609C197.495 168.511 197.696 167.536 198.098 166.683C198.506 165.826 199.067 165.156 199.782 164.673C200.501 164.186 201.332 163.942 202.275 163.942C202.866 163.942 203.437 164.051 203.986 164.268C204.535 164.482 205.028 164.811 205.463 165.256C205.904 165.696 206.252 166.252 206.507 166.925C206.763 167.592 206.891 168.383 206.891 169.297V169.922H198.368V168.807H205.598C205.598 168.106 205.456 167.476 205.172 166.918C204.893 166.354 204.502 165.909 204 165.582C203.503 165.256 202.928 165.092 202.275 165.092C201.583 165.092 200.975 165.277 200.449 165.646C199.924 166.016 199.512 166.503 199.213 167.109C198.92 167.715 198.771 168.378 198.766 169.098V169.766C198.766 170.632 198.915 171.39 199.213 172.038C199.516 172.682 199.945 173.182 200.499 173.537C201.053 173.892 201.709 174.07 202.466 174.07C202.982 174.07 203.435 173.989 203.823 173.828C204.216 173.667 204.545 173.452 204.81 173.182C205.08 172.907 205.283 172.607 205.421 172.28L206.621 172.67C206.455 173.13 206.183 173.554 205.804 173.942C205.43 174.33 204.962 174.643 204.398 174.879C203.839 175.111 203.195 175.227 202.466 175.227ZM217.006 166.484L215.849 166.811C215.735 166.484 215.574 166.188 215.366 165.923C215.157 165.658 214.885 165.447 214.549 165.291C214.218 165.135 213.806 165.057 213.313 165.057C212.575 165.057 211.969 165.232 211.495 165.582C211.022 165.933 210.785 166.385 210.785 166.939C210.785 167.408 210.946 167.789 211.268 168.082C211.594 168.371 212.096 168.601 212.773 168.771L214.421 169.176C215.335 169.399 216.019 169.751 216.474 170.234C216.933 170.717 217.163 171.323 217.163 172.053C217.163 172.668 216.992 173.215 216.651 173.693C216.31 174.171 215.835 174.548 215.224 174.822C214.618 175.092 213.915 175.227 213.114 175.227C212.049 175.227 211.171 174.988 210.479 174.51C209.788 174.027 209.345 173.331 209.151 172.422L210.366 172.124C210.522 172.772 210.827 173.262 211.282 173.594C211.741 173.925 212.345 174.091 213.093 174.091C213.931 174.091 214.601 173.904 215.103 173.53C215.605 173.151 215.856 172.678 215.856 172.109C215.856 171.669 215.709 171.3 215.415 171.001C215.122 170.698 214.677 170.476 214.08 170.334L212.298 169.908C211.351 169.68 210.65 169.321 210.195 168.828C209.741 168.336 209.513 167.725 209.513 166.996C209.513 166.394 209.677 165.866 210.004 165.412C210.33 164.953 210.78 164.593 211.353 164.332C211.926 164.072 212.579 163.942 213.313 163.942C214.312 163.942 215.11 164.169 215.707 164.624C216.308 165.073 216.741 165.694 217.006 166.484ZM224.654 159.773L219.966 177.188H218.78L223.468 159.773H224.654ZM231.568 159.773L226.88 177.188H225.694L230.382 159.773H231.568ZM240.989 175V176.193H232.054V175H240.989Z" fill="white"/>
<path d="M175.372 199.688H120.553C118.041 199.688 116 201.812 116 204.419V260.581C116 263.189 118.041 265.313 120.553 265.313H175.372C177.884 265.313 179.939 263.189 179.939 260.581V204.419C179.939 201.812 177.884 199.688 175.372 199.688ZM135.324 255.938H125.848V224.619H135.339V255.938H135.324ZM130.586 220.342C127.546 220.342 125.091 217.808 125.091 214.702C125.091 211.597 127.546 209.063 130.586 209.063C133.612 209.063 136.081 211.597 136.081 214.702C136.081 217.822 133.626 220.342 130.586 220.342ZM170.848 255.938H161.371V240.703C161.371 237.07 161.3 232.397 156.447 232.397C151.509 232.397 150.752 236.353 150.752 240.439V255.938H141.276V224.619H150.367V228.897H150.496C151.766 226.436 154.863 223.843 159.473 223.843C169.064 223.843 170.848 230.332 170.848 238.77V255.938Z" fill="white"/>
<path d="M241.665 253.537C241.665 253.817 241.351 254.041 240.955 254.041C240.504 254.083 240.19 253.859 240.19 253.537C240.19 253.257 240.504 253.033 240.9 253.033C241.31 252.991 241.665 253.215 241.665 253.537ZM237.416 252.907C237.321 253.187 237.594 253.509 238.004 253.593C238.359 253.733 238.769 253.593 238.851 253.313C238.933 253.033 238.673 252.711 238.263 252.585C237.908 252.487 237.512 252.627 237.416 252.907ZM243.455 252.669C243.059 252.767 242.785 253.033 242.826 253.355C242.867 253.635 243.223 253.817 243.632 253.719C244.029 253.621 244.302 253.355 244.261 253.075C244.22 252.809 243.851 252.627 243.455 252.669ZM252.444 199C233.495 199 219 213.748 219 233.173C219 248.705 228.536 261.996 242.157 266.674C243.906 266.996 244.521 265.89 244.521 264.979C244.521 264.111 244.48 259.321 244.48 256.38C244.48 256.38 234.916 258.481 232.908 252.206C232.908 252.206 231.35 248.131 229.11 247.081C229.11 247.081 225.981 244.882 229.328 244.924C229.328 244.924 232.73 245.204 234.602 248.537C237.594 253.943 242.608 252.389 244.561 251.464C244.876 249.223 245.764 247.669 246.747 246.744C239.11 245.876 231.405 244.742 231.405 231.268C231.405 227.417 232.443 225.484 234.629 223.019C234.274 222.109 233.113 218.355 234.984 213.51C237.84 212.599 244.411 217.291 244.411 217.291C247.144 216.507 250.081 216.101 252.991 216.101C255.901 216.101 258.838 216.507 261.571 217.291C261.571 217.291 268.142 212.585 270.997 213.51C272.869 218.369 271.708 222.109 271.353 223.019C273.538 225.498 274.877 227.431 274.877 231.268C274.877 244.784 266.83 245.862 259.193 246.744C260.45 247.851 261.516 249.952 261.516 253.243C261.516 257.963 261.475 263.803 261.475 264.951C261.475 265.862 262.103 266.968 263.838 266.646C277.5 261.996 286.763 248.705 286.763 233.173C286.763 213.748 271.394 199 252.444 199ZM232.279 247.305C232.102 247.445 232.143 247.767 232.375 248.033C232.594 248.257 232.908 248.355 233.085 248.173C233.263 248.033 233.222 247.711 232.99 247.445C232.771 247.221 232.457 247.123 232.279 247.305ZM230.804 246.17C230.708 246.352 230.845 246.576 231.118 246.716C231.337 246.856 231.61 246.814 231.706 246.618C231.801 246.436 231.665 246.212 231.391 246.072C231.118 245.988 230.9 246.03 230.804 246.17ZM235.23 251.156C235.012 251.338 235.094 251.758 235.408 252.024C235.722 252.347 236.118 252.389 236.296 252.164C236.474 251.982 236.392 251.562 236.118 251.296C235.818 250.974 235.408 250.932 235.23 251.156ZM233.673 249.097C233.454 249.237 233.454 249.601 233.673 249.924C233.892 250.246 234.26 250.386 234.438 250.246C234.657 250.064 234.657 249.7 234.438 249.377C234.247 249.055 233.892 248.915 233.673 249.097Z" fill="white"/>
</svg>
