<svg width="68" height="68" viewBox="0 0 68 68" fill="none" xmlns="http://www.w3.org/2000/svg">
<path d="M22.6652 54.537C22.6652 54.8171 22.3509 55.0412 21.9547 55.0412C21.5039 55.0832 21.1897 54.8591 21.1897 54.537C21.1897 54.2569 21.5039 54.0328 21.9001 54.0328C22.3099 53.9908 22.6652 54.2149 22.6652 54.537ZM18.4163 53.9068C18.3207 54.1869 18.5939 54.509 19.0038 54.593C19.359 54.7331 19.7688 54.593 19.8508 54.3129C19.9328 54.0328 19.6732 53.7107 19.2633 53.5846C18.9081 53.4866 18.5119 53.6267 18.4163 53.9068ZM24.4549 53.6687C24.0587 53.7667 23.7854 54.0328 23.8264 54.3549C23.8674 54.635 24.2226 54.8171 24.6325 54.7191C25.0287 54.621 25.3019 54.3549 25.2609 54.0748C25.2199 53.8087 24.8511 53.6267 24.4549 53.6687ZM33.4444 0C14.4953 0 0 14.7477 0 34.1732C0 49.7051 9.53603 62.9963 23.157 67.6741C24.9057 67.9962 25.5205 66.8898 25.5205 65.9794C25.5205 65.1111 25.4795 60.3212 25.4795 57.3801C25.4795 57.3801 15.9162 59.4809 13.9079 53.2065C13.9079 53.2065 12.3504 49.1309 10.1098 48.0805C10.1098 48.0805 6.98125 45.8817 10.3284 45.9237C10.3284 45.9237 13.7302 46.2038 15.6019 49.5371C18.5939 54.9432 23.6078 53.3886 25.5615 52.4642C25.8757 50.2233 26.7637 48.6687 27.7474 47.7444C20.1104 46.8761 12.405 45.7416 12.405 32.2684C12.405 28.4169 13.4433 26.4842 15.6293 24.0193C15.274 23.1089 14.1128 19.3555 15.9845 14.5096C18.8398 13.5992 25.4112 18.291 25.4112 18.291C28.1436 17.5067 31.0809 17.1006 33.9909 17.1006C36.9009 17.1006 39.8382 17.5067 42.5706 18.291C42.5706 18.291 49.142 13.5852 51.9973 14.5096C53.869 19.3695 52.7078 23.1089 52.3526 24.0193C54.5385 26.4982 55.8773 28.4309 55.8773 32.2684C55.8773 45.7836 47.8304 46.862 40.1934 47.7444C41.4503 48.8508 42.516 50.9516 42.516 54.2429C42.516 58.9627 42.475 64.803 42.475 65.9514C42.475 66.8618 43.1034 67.9682 44.8385 67.6461C58.5004 62.9963 67.7632 49.7051 67.7632 34.1732C67.7632 14.7477 52.3935 0 33.4444 0ZM13.2794 48.3046C13.1018 48.4447 13.1428 48.7668 13.375 49.0329C13.5936 49.257 13.9079 49.355 14.0855 49.1729C14.2631 49.0329 14.2221 48.7108 13.9898 48.4447C13.7712 48.2206 13.457 48.1225 13.2794 48.3046ZM11.8039 47.1702C11.7083 47.3522 11.8449 47.5763 12.1181 47.7164C12.3367 47.8564 12.61 47.8144 12.7056 47.6183C12.8012 47.4363 12.6646 47.2122 12.3914 47.0721C12.1181 46.9881 11.8995 47.0301 11.8039 47.1702ZM16.2304 52.1561C16.0118 52.3382 16.0938 52.7583 16.408 53.0244C16.7222 53.3465 17.1184 53.3886 17.296 53.1645C17.4736 52.9824 17.3916 52.5622 17.1184 52.2961C16.8178 51.974 16.408 51.932 16.2304 52.1561ZM14.6729 50.0973C14.4543 50.2374 14.4543 50.6015 14.6729 50.9236C14.8915 51.2457 15.2604 51.3858 15.438 51.2457C15.6566 51.0637 15.6566 50.6995 15.438 50.3774C15.2467 50.0553 14.8915 49.9152 14.6729 50.0973Z" fill="white"/>
</svg>
