<svg width="64" height="67" viewBox="0 0 64 67" fill="none" xmlns="http://www.w3.org/2000/svg">
<rect width="64" height="67" fill="black"/>
<line x1="60.5" y1="-1684" x2="60.4999" y2="236" stroke="white"/>
<path d="M59.3718 0.6875H4.55279C2.04091 0.6875 0 2.81153 0 5.41895V61.5811C0 64.1885 2.04091 66.3125 4.55279 66.3125H59.3718C61.8837 66.3125 63.9389 64.1885 63.9389 61.5811V5.41895C63.9389 2.81153 61.8837 0.6875 59.3718 0.6875ZM19.3244 56.9375H9.84772V25.6192H19.3386V56.9375H19.3244ZM14.5861 21.3418C11.5461 21.3418 9.09131 18.8076 9.09131 15.7022C9.09131 12.5967 11.5461 10.0625 14.5861 10.0625C17.6117 10.0625 20.0808 12.5967 20.0808 15.7022C20.0808 18.8223 17.626 21.3418 14.5861 21.3418ZM54.8475 56.9375H45.3709V41.7032C45.3709 38.0703 45.2995 33.3975 40.447 33.3975C35.5089 33.3975 34.7525 37.3526 34.7525 41.4395V56.9375H25.2758V25.6192H34.3671V29.8965H34.4956C35.7658 27.4356 38.8628 24.8428 43.4727 24.8428C53.0635 24.8428 54.8475 31.332 54.8475 39.7696V56.9375Z" fill="white"/>
</svg>
